<svg version="1.1" id="Layer_1" xmlns="http://www.w3.org/2000/svg" xmlns:xlink="http://www.w3.org/1999/xlink" x="0px" y="0px"
	 width="100%" viewBox="0 0 1024 1024" enable-background="new 0 0 1024 1024" xml:space="preserve">
<path fill="none" opacity="1.000000" stroke="none"
	d="
M574.000000,1025.000000 
	C382.666656,1025.000000 191.833328,1025.000000 1.000000,1025.000000 
	C1.000000,683.666687 1.000000,342.333344 1.000000,1.000000 
	C342.333344,1.000000 683.666687,1.000000 1025.000000,1.000000 
	C1025.000000,342.333344 1025.000000,683.666687 1025.000000,1025.000000 
	C874.833313,1025.000000 724.666687,1025.000000 574.000000,1025.000000 
M732.145325,212.787598 
	C732.545410,212.735107 732.945496,212.682632 733.345581,212.630127 
	C733.078552,212.259338 732.811584,211.888550 731.987854,211.121460 
	C731.409912,211.286057 730.831909,211.450668 730.253967,211.615265 
	C730.798462,211.782394 731.342957,211.949524 732.145325,212.787598 
M439.811157,631.071533 
	C490.263031,639.505310 540.648193,639.551514 591.777283,629.989929 
	C597.047485,628.929199 602.317627,627.868408 607.587830,626.807678 
	C607.509216,626.375244 607.430664,625.942810 607.352051,625.510437 
	C601.867188,626.460266 596.382263,627.410095 590.098877,628.397766 
	C570.731140,629.880432 551.386414,632.002502 531.990417,632.699707 
	C500.916473,633.816589 469.859039,632.731445 438.290283,628.850037 
	C433.967529,628.269531 429.644745,627.689087 425.321991,627.108643 
	C425.237671,627.527771 425.153351,627.946899 425.069061,628.365967 
	C429.727386,629.203491 434.385712,630.040955 439.811157,631.071533 
M305.868317,175.751526 
	C306.034637,175.950806 306.200958,176.150085 306.189178,177.024307 
	C301.116974,186.458984 296.044739,195.893677 290.972534,205.328354 
	C291.364349,205.577957 291.756134,205.827545 292.147949,206.077148 
	C296.483429,203.354919 300.672272,200.356445 305.182037,197.962524 
	C318.432129,190.929016 326.917908,179.886093 331.117645,165.879623 
	C334.009369,156.235306 335.096710,146.063538 337.433807,136.232880 
	C338.418060,132.092758 336.946655,131.426056 333.816376,132.782196 
	C328.045776,135.282150 322.113556,137.659790 316.849182,141.027191 
	C304.447174,148.960220 292.857391,157.934372 286.515137,171.871338 
	C280.897552,184.215851 281.989258,196.825531 284.776886,209.082977 
	C291.670044,197.739105 298.543121,186.428299 305.868317,175.751526 
M721.794434,176.124771 
	C728.457764,187.334198 735.121033,198.543610 741.691406,209.596725 
	C747.473877,190.406036 743.183411,170.565033 729.409424,156.876450 
	C715.570984,143.123856 694.742310,130.896622 688.541687,133.477554 
	C692.721985,180.674088 706.891174,190.791992 736.258606,207.030121 
	C730.462646,196.073135 725.310547,186.333176 720.694214,176.211105 
	C720.862549,176.070435 721.030884,175.929779 721.794434,176.124771 
M771.963684,264.976044 
	C772.362671,265.237549 772.761597,265.499054 773.463074,266.014893 
	C773.867798,265.765961 774.272522,265.517059 774.083740,264.783966 
	C765.700134,250.150543 754.630371,238.963409 737.584351,234.592438 
	C721.282288,230.412231 705.439819,231.742508 689.222778,236.820114 
	C696.382202,244.549576 703.614197,251.596619 711.503296,257.809174 
	C729.386047,271.891418 749.411865,278.698975 772.419189,274.241302 
	C774.824829,273.775177 777.369385,274.025940 780.519348,273.843658 
	C782.338135,272.566132 784.156921,271.288605 786.579163,270.325531 
	C797.342041,289.434753 809.641235,307.862976 818.487976,327.821564 
	C830.162781,354.160278 837.001099,382.288422 839.838379,411.087341 
	C843.340820,446.638458 841.091919,481.771515 831.325684,516.367432 
	C812.433777,583.290344 773.623901,636.061584 717.569824,676.321350 
	C682.077576,701.812927 642.710938,719.793518 600.207214,729.729004 
	C556.296753,739.993408 514.251709,755.349731 472.648010,772.273987 
	C440.319824,785.424927 407.983948,798.557129 375.638184,811.664734 
	C372.989136,812.738220 370.237457,813.558411 366.712708,814.781006 
	C383.180481,825.830872 398.731598,836.265686 413.595398,846.239258 
	C423.206177,837.272095 432.053955,828.193054 441.749023,820.133179 
	C466.013428,799.961365 495.119385,787.627319 522.372192,772.470154 
	C539.001526,763.221375 557.882568,757.489807 576.322266,752.144897 
	C608.738708,742.748474 641.198914,733.934204 671.770996,719.071106 
	C719.293640,695.967102 760.303711,664.951843 792.329651,622.676086 
	C827.853088,575.783386 846.457275,522.472229 849.785828,464.066254 
	C852.596741,414.743408 843.643982,367.428040 822.121277,322.584869 
	C803.113037,282.980591 777.486084,248.617020 743.979431,220.182632 
	C740.821045,217.502365 737.379395,215.155930 733.343384,212.105972 
	C748.355347,227.986023 762.642395,243.099228 776.937256,258.982880 
	C777.867615,263.270905 778.797913,267.558960 778.971008,271.727844 
	C775.956482,270.207581 772.942017,268.687347 770.021179,266.477112 
	C770.425354,265.944427 770.829590,265.411743 771.963684,264.976044 
M837.027161,282.921204 
	C837.318848,282.963531 837.610596,283.005890 838.017090,283.880219 
	C841.439880,302.358032 840.943481,320.964050 839.417664,339.658325 
	C851.065369,327.904114 859.686279,314.774292 860.291077,298.033905 
	C861.233154,271.955505 850.915649,249.806335 835.183655,229.771179 
	C832.474976,226.321533 830.534363,227.690720 829.116516,231.109848 
	C825.875610,238.925278 822.323853,246.622574 819.372498,254.544525 
	C815.670166,264.482544 814.530579,274.773743 815.499878,285.435364 
	C816.869690,300.503296 823.313721,313.466522 831.043579,326.015808 
	C832.412231,328.237793 833.724182,330.494751 835.062317,332.735535 
	C835.422546,332.595795 835.782776,332.456055 836.143005,332.316315 
	C836.143005,315.847137 836.143005,299.377960 837.027161,282.921204 
M189.634872,283.905243 
	C190.019287,283.967377 190.403717,284.029510 190.815857,284.937836 
	C190.815857,300.226776 190.815857,315.515717 190.815857,330.804626 
	C195.465515,324.927155 199.504425,319.238068 202.776108,313.137512 
	C212.771072,294.500488 215.239182,275.081726 207.630188,254.945114 
	C204.873276,247.649124 201.873016,240.441055 198.825073,233.260239 
	C195.898239,226.364777 194.497833,226.300903 189.736465,232.403641 
	C180.745422,243.927643 174.403900,256.791656 170.016739,270.697418 
	C162.257431,295.291595 166.451828,317.278107 183.973145,336.512085 
	C185.022293,337.663818 185.377106,339.448029 186.054993,340.937927 
	C186.625275,340.375061 187.195541,339.812225 187.765808,339.249359 
	C185.991959,320.790344 185.847382,302.370789 189.634872,283.905243 
M807.902039,410.043640 
	C816.040588,423.601593 824.179138,437.159546 832.532715,451.075684 
	C834.177246,439.900543 835.203552,428.921722 832.999084,417.913208 
	C826.545837,385.687012 803.926086,368.979950 775.289490,358.159729 
	C772.157349,356.976288 770.480042,358.142273 770.862610,361.722595 
	C771.269165,365.528259 771.374268,369.372925 771.921631,373.155609 
	C774.744080,392.661285 778.733826,411.797058 789.937073,428.595123 
	C800.080078,443.803406 814.023315,454.159149 832.132751,461.863647 
	C823.057983,443.866608 814.641357,427.174927 806.802551,410.085999 
	C806.984253,409.938934 807.165894,409.791901 807.902039,410.043640 
M220.217331,409.099426 
	C220.412598,409.217743 220.607849,409.336029 220.668182,410.171783 
	C212.168610,426.876038 203.669052,443.580292 195.169479,460.284546 
	C222.188232,449.842133 240.272934,431.479279 247.817307,404.241364 
	C251.611710,390.542175 253.435562,376.283569 255.865814,362.228729 
	C256.562897,358.197418 254.761703,357.035950 250.893417,358.344025 
	C248.532715,359.142303 246.225876,360.107452 243.919296,361.057007 
	C227.244171,367.921509 213.038040,377.922028 202.938614,393.194275 
	C191.022873,411.213135 191.160873,430.981140 194.086975,450.889221 
	C202.575455,436.887573 211.126404,422.782837 220.217331,409.099426 
M746.989441,591.983032 
	C746.989441,591.983032 746.944153,591.924866 747.539917,592.604919 
	C743.345581,613.884216 737.417603,634.660339 728.514954,656.015198 
	C730.962036,654.717834 732.310425,654.237854 733.374023,653.397461 
	C737.420532,650.200012 741.500732,647.026855 745.344116,643.593628 
	C777.715881,614.677246 777.842407,573.957336 759.171570,539.905945 
	C757.464661,536.793030 755.567566,535.543518 752.901245,539.068054 
	C738.815063,557.688477 725.845154,576.955933 718.289917,599.313782 
	C711.256226,620.128113 712.927551,640.618652 720.817871,661.760193 
	C721.525024,660.310364 721.911682,659.652832 722.178833,658.949890 
	C727.074219,646.067444 732.010498,633.200073 736.820862,620.285889 
	C740.316223,610.901855 743.640808,601.454285 746.989441,591.983032 
M413.093048,709.318726 
	C413.222717,708.594910 413.553711,707.841614 413.452698,707.151550 
	C410.755402,688.727844 403.243805,672.550903 390.653839,658.797852 
	C373.578003,640.144531 352.680084,626.658630 330.720795,614.621643 
	C327.199097,612.691284 326.267731,614.677673 326.002960,617.729858 
	C324.626068,633.600647 326.818512,648.980774 333.280670,663.524414 
	C348.368958,697.481995 377.564117,710.488281 412.695679,716.053162 
	C411.399048,714.693542 410.663818,713.922668 410.225006,712.464233 
	C411.017944,711.540161 411.810883,710.616089 413.093048,709.318726 
M688.046265,319.898468 
	C689.097595,328.592957 686.413391,335.935455 680.131714,342.022156 
	C667.946167,353.829437 645.332031,356.370392 630.862488,347.525085 
	C617.485168,339.347443 617.395813,323.240295 630.685974,315.002655 
	C632.760193,313.716980 634.852112,312.459900 637.947083,310.573090 
	C635.317017,308.243134 633.568542,305.968292 631.261169,304.768402 
	C616.683533,297.187744 595.512817,305.065002 589.031494,320.289154 
	C581.972473,336.870270 588.263855,355.841217 604.352844,366.488586 
	C630.573425,383.840820 667.608887,381.511871 691.257690,360.739258 
	C714.275574,340.520844 715.433594,306.451172 687.926147,287.000366 
	C676.613159,279.000793 663.943909,274.617767 650.432373,273.040070 
	C620.765015,269.575897 593.070740,276.001221 567.927551,292.017761 
	C535.550659,312.642242 517.975708,342.510529 517.120789,380.859558 
	C516.192505,422.501434 516.872437,464.179443 516.872681,505.841675 
	C516.872864,533.005493 516.909058,560.169250 516.935608,587.333069 
	C516.939270,591.030273 516.737305,594.622986 511.708008,597.664368 
	C510.926605,593.779358 509.727509,590.581665 509.721771,587.381897 
	C509.600830,519.888611 509.733429,452.394592 509.458069,384.902191 
	C509.421753,375.997284 508.259552,366.905945 506.207886,358.234741 
	C498.900055,327.349091 480.421204,304.421234 453.125153,289.027802 
	C423.207581,272.155914 391.357025,266.882111 357.857971,277.085083 
	C346.854156,280.436615 337.128418,286.067841 329.294647,294.680267 
	C311.860168,313.847656 314.283936,343.239624 335.033478,360.868469 
	C354.728241,377.601105 377.491943,381.282410 402.066010,375.294922 
	C415.928253,371.917328 427.881714,365.043274 435.184845,352.306854 
	C441.735779,340.882233 442.537354,328.789856 435.426270,317.242645 
	C428.373383,305.789948 417.319336,301.453094 404.289642,302.237091 
	C398.140320,302.607086 392.135223,304.174408 388.506927,310.972351 
	C390.659821,312.338318 392.529846,313.624115 394.491119,314.751160 
	C401.332184,318.682404 405.819763,324.071472 405.236877,332.433929 
	C404.660645,340.701294 399.529327,345.747711 392.470642,348.873260 
	C380.289459,354.266968 367.927612,354.287018 355.676056,348.946960 
	C336.012726,340.376343 331.421967,317.461761 346.903198,302.768097 
	C351.702911,298.212555 357.895233,294.472595 364.120880,292.185211 
	C389.489716,282.864441 414.152039,286.502136 437.278748,299.290924 
	C469.697021,317.217865 488.929230,344.959595 489.535156,382.200287 
	C490.643829,450.341980 489.807495,518.515564 489.731903,586.675903 
	C489.722992,594.717102 485.934692,599.875977 478.020142,601.006226 
	C461.172211,603.411987 445.400940,598.887573 430.302643,591.847839 
	C425.710205,589.706543 420.250458,587.245178 420.447662,581.087891 
	C420.646423,574.882446 426.122894,572.451233 430.922424,570.157471 
	C443.931183,563.940491 457.982758,562.000854 472.140533,561.309509 
	C477.108765,561.067017 478.203949,559.300171 477.620789,555.098877 
	C477.442932,553.817505 477.235321,552.540344 476.988129,550.910461 
	C467.755432,551.582947 458.764771,551.932922 449.849518,552.946106 
	C426.014008,555.654724 402.167023,558.710022 379.520050,567.040955 
	C371.864532,569.857117 364.343109,573.985535 357.945984,579.020508 
	C350.894562,584.570496 351.429993,592.653625 358.321594,598.297363 
	C362.513580,601.730286 367.198364,605.175415 372.246826,606.830933 
	C386.121368,611.380615 400.105438,616.026306 414.403748,618.771362 
	C454.342438,626.439026 494.802185,627.485840 535.358398,626.356995 
	C568.407349,625.437012 601.186707,622.485291 633.264099,613.976746 
	C644.878235,610.896118 656.270142,607.155396 665.924377,599.675720 
	C675.023132,592.626404 675.164978,583.608765 665.811279,576.992676 
	C660.176086,573.006836 653.875549,569.572388 647.387146,567.250854 
	C622.312195,558.278992 596.177368,554.307800 569.740234,552.131104 
	C562.862427,551.564758 555.959595,551.301086 549.176880,550.904724 
	C549.176880,554.550659 549.176880,557.490356 549.176880,559.951965 
	C560.026062,561.703979 570.688538,562.660034 580.902161,565.331909 
	C588.281555,567.262390 595.533264,570.743896 601.972961,574.884888 
	C607.687073,578.559387 606.996521,584.226196 601.475342,588.451111 
	C599.373230,590.059692 597.107239,591.565430 594.705261,592.652527 
	C581.661499,598.555786 567.922058,601.697571 553.625122,601.910950 
	C540.924133,602.100525 536.492676,597.539368 536.483826,584.866760 
	C536.437378,518.206665 536.317688,451.546265 536.483215,384.886597 
	C536.523804,368.537903 540.226379,352.843658 548.426147,338.522156 
	C562.736328,313.528534 584.160645,297.700806 611.880676,290.412659 
	C629.709167,285.725250 647.522766,285.610382 664.747375,292.947784 
	C676.432373,297.925446 685.242554,305.867889 688.046265,319.898468 
M458.369324,753.999146 
	C465.310852,756.297974 472.242096,758.628723 479.201202,760.872925 
	C480.916534,761.426086 483.020874,762.494324 484.435760,761.963745 
	C491.048676,759.484558 497.482880,756.528809 505.329987,753.165161 
	C493.232941,749.187988 482.456360,745.270569 471.462830,742.107178 
	C447.351196,735.169128 422.831360,729.523132 399.012695,721.718262 
	C343.060791,703.384094 294.649445,673.096130 255.629623,628.429138 
	C214.754410,581.638367 191.950317,527.101562 186.197815,465.548187 
	C182.368973,424.578888 188.087402,384.471710 201.290237,345.541626 
	C211.576706,315.210724 226.866699,287.398773 246.235901,261.964203 
	C258.980316,245.228928 273.906189,230.426773 289.976715,216.825516 
	C291.125793,215.852966 292.447083,215.083923 293.688293,214.220261 
	C293.276794,213.788605 292.865295,213.356949 292.453766,212.925293 
	C291.781982,213.272720 291.002045,213.498535 290.454437,213.985596 
	C280.009155,223.275543 268.904175,231.942810 259.302094,242.038483 
	C234.811157,267.788391 215.418289,297.129395 200.897919,329.608917 
	C187.463470,359.659393 180.260071,391.327423 177.104355,423.956329 
	C174.307220,452.877960 177.251083,481.473907 183.014694,509.825409 
	C191.818863,553.133545 210.225128,592.096863 237.255493,626.900452 
	C276.154022,676.984985 327.106812,710.634766 385.908081,732.511475 
	C409.216522,741.183228 433.662018,746.798828 458.369324,753.999146 
M773.506042,752.995911 
	C786.058411,745.531311 798.779785,738.332214 811.092285,730.491089 
	C817.311096,726.530762 816.851929,724.512817 810.175659,721.810608 
	C802.321350,718.631409 794.502563,715.320312 786.493591,712.576538 
	C767.519836,706.076416 747.944031,703.434204 727.960449,705.292969 
	C702.086060,707.699768 681.239929,721.791504 660.222229,735.991089 
	C686.558289,735.171570 712.894348,734.352051 739.230469,733.532532 
	C710.203857,739.947449 680.870178,741.900146 651.231628,741.595825 
	C656.448059,745.493408 661.721375,748.937622 667.060974,752.275757 
	C682.887329,762.170105 700.093079,766.744385 718.800598,766.173584 
	C737.733032,765.595825 755.542297,760.690735 773.506042,752.995911 
M367.527374,747.034912 
	C369.879944,745.410706 372.232513,743.786438 374.585083,742.162231 
	C344.347809,742.356018 314.766998,740.853210 285.614868,733.670898 
	C311.943817,734.525757 338.272766,735.380615 364.601715,736.235474 
	C338.145752,716.892944 310.705750,701.630981 276.836700,704.929993 
	C253.426086,707.210144 231.461502,713.954956 209.536591,725.353516 
	C213.447144,728.737366 216.098373,731.848083 219.433914,733.773010 
	C232.216705,741.149597 244.801178,749.086365 258.239990,755.057861 
	C277.299896,763.526917 297.679474,766.873169 318.634216,765.985046 
	C336.814911,765.214417 352.213013,757.229248 367.527374,747.034912 
M876.366394,629.062805 
	C868.715576,628.635132 861.069397,628.083496 853.413208,627.802002 
	C824.907715,626.753540 798.903503,633.545044 777.323425,653.112488 
	C770.428406,659.364502 764.251892,666.409790 757.760681,673.105835 
	C756.375183,674.534973 755.050964,676.023499 753.698486,677.484619 
	C753.906250,677.830750 754.114014,678.176819 754.321777,678.522888 
	C778.007935,671.830383 801.694153,665.137817 825.380310,658.445312 
	C825.535950,658.982788 825.691589,659.520203 825.847168,660.057678 
	C799.693420,671.277039 773.065308,681.024902 743.197876,685.260315 
	C762.052429,695.197998 780.459839,700.509399 800.482788,698.484741 
	C821.975098,696.311646 840.786926,687.483032 857.749573,674.461670 
	C871.322693,664.042419 883.197388,651.973877 892.457520,637.491089 
	C895.668152,632.469543 894.906677,631.105713 889.138550,630.603149 
	C885.172913,630.257690 881.233032,629.616394 876.366394,629.062805 
M263.892853,676.531067 
	C266.442719,676.942566 268.992584,677.354065 271.542450,677.765503 
	C267.665131,671.995117 263.243439,667.142456 258.770172,662.337891 
	C237.175629,639.144226 210.609772,627.286682 178.836823,627.993530 
	C165.553238,628.289124 152.296570,629.651672 139.016083,630.287354 
	C131.418533,630.651001 130.200348,632.628784 134.590256,638.792419 
	C153.643143,665.543640 177.541428,686.034363 209.587067,695.386536 
	C234.699936,702.715454 258.475159,698.223328 281.581207,685.390686 
	C253.651932,680.498901 227.326523,672.482605 200.909668,659.861267 
	C204.080750,660.070190 205.891220,659.905518 207.538483,660.348145 
	C213.952972,662.071899 220.314392,663.992676 226.697952,665.831970 
	C238.830978,669.327515 250.965637,672.817444 263.892853,676.531067 
M838.510803,596.024963 
	C829.672119,601.447327 820.833496,606.869629 811.494385,612.598999 
	C813.589478,613.135132 815.126526,613.685913 816.709778,613.909241 
	C831.946533,616.057800 846.923523,614.942627 861.586975,610.169312 
	C883.823120,602.931091 899.762146,587.641846 913.190125,569.344666 
	C922.276428,556.963623 929.973999,543.750549 934.110168,528.792480 
	C935.457458,523.919983 934.213867,522.631897 929.289612,523.222595 
	C922.013306,524.095459 914.740173,525.008789 907.484863,526.039917 
	C875.990295,530.516113 849.547119,543.616577 832.501160,571.593567 
	C826.746460,581.038635 822.518616,591.413879 817.592957,601.364075 
	C818.068604,601.712463 818.544189,602.060913 819.019836,602.409302 
	C838.438293,589.808777 857.856750,577.208191 877.275146,564.607605 
	C877.701294,565.211670 878.127441,565.815796 878.553589,566.419861 
	C865.410583,576.162354 852.267578,585.904846 838.510803,596.024963 
M130.635849,588.862061 
	C154.297653,611.305969 182.067154,619.215332 214.197220,612.251587 
	C191.355164,599.333679 169.647659,584.938599 150.881882,566.250732 
	C169.736496,578.235535 188.591125,590.220276 207.445740,602.205078 
	C206.770828,597.764160 205.429535,594.067505 203.919678,590.441101 
	C191.811386,561.359253 171.728943,540.327393 141.068436,531.454468 
	C127.098282,527.411560 112.366066,525.973816 97.955513,523.493652 
	C91.466148,522.376770 90.538315,523.412720 92.563042,529.781860 
	C99.834740,552.656189 112.893013,571.866943 130.635849,588.862061 
M863.957703,499.459351 
	C872.375793,488.880127 880.793884,478.300934 889.211975,467.721710 
	C889.624939,468.031952 890.037964,468.342224 890.450928,468.652466 
	C880.186523,488.644287 865.527222,505.569946 850.327026,523.382996 
	C868.145142,521.307861 883.122253,515.561401 896.064514,504.894135 
	C909.146606,494.111633 917.486023,480.107269 923.318115,464.411163 
	C929.631531,447.419586 933.192017,429.917572 933.261658,411.757629 
	C933.280701,406.793701 932.086609,405.984863 927.650940,408.175232 
	C919.013733,412.440399 910.228516,416.473358 901.907288,421.297211 
	C883.301086,432.083313 868.677490,446.756622 860.191833,466.851044 
	C854.232178,480.963837 853.926758,496.007172 852.723206,512.290466 
	C856.971375,507.440063 860.231995,503.717163 863.957703,499.459351 
M160.222702,455.289093 
	C153.044037,443.872070 144.424942,433.727844 132.704697,426.830597 
	C121.837593,420.435364 110.641670,414.589172 99.489456,408.692383 
	C94.397591,406.000031 92.919800,406.973877 93.057945,412.661591 
	C93.593765,434.722168 98.366325,455.810730 107.992775,475.714203 
	C116.212563,492.709320 128.160248,506.164093 145.456909,514.381287 
	C155.044312,518.936035 164.862808,522.730103 176.614807,523.393311 
	C160.879669,505.591522 145.642975,488.540527 135.369247,467.960083 
	C135.758499,467.661682 136.147736,467.363281 136.536972,467.064850 
	C148.556671,482.003479 160.576370,496.942078 172.596069,511.880676 
	C173.156372,491.710297 171.007278,472.828491 160.222702,455.289093 
M654.255554,703.750732 
	C689.044678,687.162354 702.756287,652.472412 700.836670,617.530701 
	C700.631470,613.796204 698.852478,612.773071 695.582825,614.831909 
	C682.648254,622.976746 669.248840,630.478760 656.887451,639.416321 
	C637.634338,653.336609 622.496521,670.801331 615.747131,694.277100 
	C614.356140,699.115356 613.481018,704.101929 612.368103,709.020142 
	C612.940735,709.426941 613.513367,709.833801 614.085999,710.240601 
	C629.722168,696.356201 645.358276,682.471863 660.994446,668.587463 
	C648.440430,687.068359 632.188416,701.768982 614.830322,715.370178 
	C615.052551,715.871277 615.274780,716.372437 615.497009,716.873535 
	C628.188599,712.604675 640.880127,708.335754 654.255554,703.750732 
M294.062012,654.487122 
	C295.234619,655.333374 296.407196,656.179626 298.785309,657.895935 
	C290.141052,637.027710 283.536194,616.957336 280.339294,595.838989 
	C288.465851,617.643372 296.592407,639.447815 304.718964,661.252197 
	C305.269104,661.097839 305.819214,660.943420 306.369354,660.789062 
	C313.131927,641.063660 315.010345,621.127991 308.526428,600.835999 
	C301.115356,577.642517 287.667297,557.895569 273.071991,538.810242 
	C270.342010,535.240417 268.141479,536.835510 266.783020,539.927673 
	C264.113953,546.003113 261.486816,552.122742 259.325439,558.390686 
	C252.103180,579.335449 253.110443,600.063965 262.471283,620.075623 
	C269.216736,634.496094 280.993439,644.679932 294.062012,654.487122 
M166.942886,417.414978 
	C167.469315,418.415009 167.995758,419.415009 168.832962,421.005371 
	C169.501129,418.498962 169.999451,416.746002 170.434967,414.977570 
	C174.033066,400.367859 176.784805,385.699188 174.625336,370.521729 
	C170.993332,344.994781 155.951553,326.197632 138.424133,308.877808 
	C135.069611,305.563019 133.144806,305.952759 131.741776,310.665070 
	C129.006699,319.851379 126.203545,329.098846 124.588684,338.519836 
	C121.451508,356.821960 121.746887,375.085480 129.066376,392.563324 
	C136.533127,410.392731 149.882446,422.476898 168.380081,431.603729 
	C158.490616,410.061615 151.002182,389.312531 148.844162,367.123505 
	C154.792221,383.657867 160.740265,400.192230 166.942886,417.414978 
M853.060425,399.451813 
	C854.602844,406.452759 856.145264,413.453705 857.687683,420.454651 
	C858.168579,420.501404 858.649536,420.548187 859.130432,420.594940 
	C864.969788,403.563995 870.809143,386.533020 876.648499,369.502075 
	C875.711243,391.226044 867.591675,410.957550 858.945740,431.190552 
	C880.337646,420.845551 895.187866,405.567169 900.550476,382.859314 
	C906.245911,358.742279 903.469299,334.926300 895.141846,311.717163 
	C894.446167,309.778351 893.127319,308.063141 891.745422,305.620697 
	C889.483093,307.681366 887.654297,309.085693 886.142029,310.773651 
	C881.589111,315.855530 877.062500,320.967255 872.698547,326.211212 
	C855.127808,347.324951 847.410217,371.161499 853.060425,399.451813 
M218.051315,475.576721 
	C199.777740,504.802948 205.125320,537.401550 222.357376,561.502441 
	C224.985260,543.476746 227.700455,524.852173 230.415649,506.227570 
	C231.104980,506.313538 231.794312,506.399506 232.483643,506.485474 
	C230.489304,527.850769 228.494980,549.216003 226.404663,571.609680 
	C245.214905,554.738525 256.777130,528.857666 257.060486,505.280243 
	C257.286469,486.476227 253.937927,468.243683 249.182480,450.176849 
	C247.841461,445.082001 246.420166,444.240967 242.772232,448.030334 
	C234.383911,456.743774 226.499924,465.942749 218.051315,475.576721 
M819.712891,514.494873 
	C818.790649,507.937103 818.576233,501.182159 816.814636,494.858215 
	C811.339233,475.202271 799.033569,460.123596 783.286377,447.687256 
	C779.105835,444.385681 777.831787,445.063629 776.803467,450.147675 
	C774.992004,459.102783 772.824890,468.008606 771.514160,477.037781 
	C768.371948,498.682709 767.957458,520.121277 777.590393,540.636475 
	C782.768494,551.664124 790.200806,560.918030 798.199402,569.809082 
	C798.658447,569.646973 799.117432,569.484924 799.576477,569.322876 
	C797.704712,547.597656 795.833008,525.872437 793.961243,504.147186 
	C800.356018,522.726685 802.000916,542.134888 803.253662,562.019287 
	C813.969543,547.842529 819.379822,532.344727 819.712891,514.494873 
M594.419067,828.067017 
	C600.234009,834.169373 606.048889,840.271790 611.992554,846.509216 
	C627.658997,836.095703 643.233398,825.743469 659.519104,814.918396 
	C657.210938,814.018616 655.588013,813.363647 653.949341,812.750854 
	C643.839844,808.970337 633.645447,805.401855 623.630676,801.385620 
	C598.058350,791.130371 572.574768,780.653992 547.020752,770.352600 
	C545.256836,769.641541 542.810120,768.787354 541.353516,769.458801 
	C533.709229,772.982605 526.281616,776.976501 517.807861,781.302795 
	C545.532410,794.462952 571.755432,807.712280 594.419067,828.067017 
M277.993469,308.484467 
	C280.866364,303.618500 283.858826,298.817200 286.543640,293.849548 
	C287.416992,292.233612 287.486511,290.183228 287.923645,288.331543 
	C286.053955,287.951263 284.154388,287.142639 282.320099,287.270447 
	C276.680511,287.663239 271.035767,288.215363 265.446503,289.059387 
	C233.493958,293.884674 213.763535,313.677582 209.668655,344.898407 
	C219.469559,336.718506 229.249130,328.556427 239.028717,320.394348 
	C239.502640,320.943329 239.976562,321.492279 240.450485,322.041260 
	C229.043167,332.719421 217.635849,343.397614 205.747147,354.526398 
	C223.400757,352.800964 240.115707,349.805603 252.844162,337.625000 
	C261.903381,328.955719 269.407288,318.661133 277.993469,308.484467 
M797.468262,333.025055 
	C794.542603,330.253082 791.616943,327.481140 788.691284,324.709167 
	C789.239319,324.141449 789.787354,323.573730 790.335388,323.006012 
	C799.006348,330.457947 807.677307,337.909882 817.060486,345.973877 
	C813.328064,324.408813 804.641052,307.398346 785.381958,297.362396 
	C770.501343,289.608063 754.704834,286.808777 736.931580,287.705658 
	C748.186646,310.188110 761.183105,329.377686 781.137085,343.095703 
	C792.479370,350.893402 805.433167,352.690399 819.802368,354.198578 
	C811.923523,346.724426 804.956665,340.115387 797.468262,333.025055 
M242.205490,231.679398 
	C240.329193,240.014801 238.452896,248.350220 236.599182,256.585266 
	C241.218536,252.359589 245.728683,248.494141 249.940170,244.326859 
	C258.600037,235.757919 263.766205,225.323715 265.884094,213.343414 
	C268.271576,199.837997 266.752228,186.444199 264.821198,173.056061 
	C264.024841,167.534973 262.661987,166.824203 258.253204,170.279480 
	C245.889328,179.969391 236.281464,192.000717 228.813721,205.776657 
	C222.210495,217.957855 220.012970,230.960175 223.112762,244.406708 
	C224.685715,251.229996 227.937592,257.666260 230.430450,264.277466 
	C232.838074,258.224823 233.837692,252.652847 235.168182,247.161057 
	C236.458694,241.834183 237.941650,236.542480 239.611923,231.322311 
	C241.249756,226.203506 243.230026,221.194290 245.059982,216.136963 
	C245.494629,216.288971 245.929276,216.440979 246.363922,216.592987 
	C245.040665,221.356812 243.717422,226.120651 242.205490,231.679398 
M771.448120,238.026505 
	C777.502991,244.767441 783.557800,251.508392 789.612671,258.249329 
	C790.013245,258.054749 790.413818,257.860138 790.814331,257.665558 
	C787.689087,244.790085 784.563782,231.914597 781.438477,219.039108 
	C789.069214,232.836990 792.451843,247.932343 795.187805,263.766479 
	C804.609497,250.076828 807.056946,235.791916 803.053833,220.463577 
	C797.558411,199.420792 784.333313,183.651505 768.087952,170.034729 
	C767.045288,169.160782 765.584229,168.785980 763.266479,167.675079 
	C762.133728,175.423004 760.788330,182.384537 760.153748,189.410278 
	C758.606445,206.542465 760.339661,223.032242 771.448120,238.026505 
M352.449951,177.068909 
	C388.492401,181.446396 411.483307,162.104401 429.768250,134.379578 
	C432.290314,130.555450 431.255280,128.333527 427.145782,128.345947 
	C410.964539,128.394852 394.785339,129.108154 379.454285,134.933334 
	C361.604980,141.715363 350.631805,155.215164 343.524200,172.919617 
	C357.114960,166.151627 370.167908,159.651443 383.220856,153.151276 
	C383.521698,153.739624 383.822540,154.327972 384.123383,154.916336 
	C371.369354,161.904190 358.615295,168.892059 345.861237,175.879929 
	C345.983948,176.168732 346.106659,176.457520 346.229340,176.746323 
	C348.018402,176.844025 349.807434,176.941727 352.449951,177.068909 
M676.931580,160.602875 
	C670.995056,150.659836 663.203369,142.679718 652.647217,137.612976 
	C635.489319,129.377548 617.231812,127.877388 598.590332,128.860977 
	C597.431763,128.922089 596.315552,129.787216 595.205322,130.267181 
	C607.065918,162.363205 645.053589,182.683243 681.646057,176.282043 
	C668.092712,168.873520 655.119446,161.782074 642.146179,154.690613 
	C642.452698,154.097626 642.759216,153.504639 643.065735,152.911652 
	C656.051575,159.434250 669.037354,165.956863 682.721436,172.830215 
	C680.732910,168.642349 678.982971,164.956985 676.931580,160.602875 
M257.241028,263.650787 
	C266.573364,258.995209 276.332367,255.589447 286.213745,252.542160 
	C286.362152,252.954666 286.510529,253.367188 286.658936,253.779694 
	C272.952698,260.027924 259.246490,266.276154 244.418854,273.035583 
	C285.077515,282.263123 314.942566,263.526123 336.983826,236.564957 
	C322.372437,231.556488 307.948486,230.897797 293.188141,233.324249 
	C273.514771,236.558350 261.684601,249.630798 251.196594,266.636261 
	C253.743057,265.393036 255.161621,264.700500 257.241028,263.650787 
M716.939453,212.696747 
	C704.465820,210.087997 691.992188,207.479248 679.518555,204.870499 
	C679.604187,204.370102 679.689758,203.869705 679.775391,203.369308 
	C693.567383,205.618515 707.359375,207.867706 721.151367,210.116898 
	C713.425110,201.542145 704.632690,194.833740 693.945923,191.199371 
	C674.978455,184.748871 655.927673,186.014709 636.983887,191.514420 
	C635.375732,191.981293 634.006836,193.272079 632.526733,194.180069 
	C633.538818,195.611191 634.247314,197.505966 635.611511,198.399246 
	C645.459351,204.847733 654.908813,212.234909 665.492249,217.158661 
	C685.629578,226.527176 706.123657,224.685791 726.553101,215.747833 
	C725.782776,215.061264 725.473267,214.559494 725.064392,214.458145 
	C722.645752,213.858444 720.203979,213.351685 716.939453,212.696747 
M352.697510,187.046799 
	C333.925079,188.539963 317.956024,195.826416 304.353699,210.347641 
	C317.051941,208.803986 328.459320,204.853470 340.535858,206.106262 
	C327.201965,209.044586 313.868042,211.982895 299.507385,215.147461 
	C316.431763,223.356018 332.984436,225.349899 350.007782,220.894897 
	C367.037231,216.438278 381.262756,206.911407 394.351715,195.370987 
	C389.808960,190.219818 371.827942,186.741898 352.697510,187.046799 
z"/>
<path fill="#FAFAFB" opacity="1.000000" stroke="none" 
	d="
M688.006104,319.460754 
	C685.242554,305.867889 676.432373,297.925446 664.747375,292.947784 
	C647.522766,285.610382 629.709167,285.725250 611.880676,290.412659 
	C584.160645,297.700806 562.736328,313.528534 548.426147,338.522156 
	C540.226379,352.843658 536.523804,368.537903 536.483215,384.886597 
	C536.317688,451.546265 536.437378,518.206665 536.483826,584.866760 
	C536.492676,597.539368 540.924133,602.100525 553.625122,601.910950 
	C567.922058,601.697571 581.661499,598.555786 594.705261,592.652527 
	C597.107239,591.565430 599.373230,590.059692 601.475342,588.451111 
	C606.996521,584.226196 607.687073,578.559387 601.972961,574.884888 
	C595.533264,570.743896 588.281555,567.262390 580.902161,565.331909 
	C570.688538,562.660034 560.026062,561.703979 549.176880,559.951965 
	C549.176880,557.490356 549.176880,554.550659 549.176880,550.904724 
	C555.959595,551.301086 562.862427,551.564758 569.740234,552.131104 
	C596.177368,554.307800 622.312195,558.278992 647.387146,567.250854 
	C653.875549,569.572388 660.176086,573.006836 665.811279,576.992676 
	C675.164978,583.608765 675.023132,592.626404 665.924377,599.675720 
	C656.270142,607.155396 644.878235,610.896118 633.264099,613.976746 
	C601.186707,622.485291 568.407349,625.437012 535.358398,626.356995 
	C494.802185,627.485840 454.342438,626.439026 414.403748,618.771362 
	C400.105438,616.026306 386.121368,611.380615 372.246826,606.830933 
	C367.198364,605.175415 362.513580,601.730286 358.321594,598.297363 
	C351.429993,592.653625 350.894562,584.570496 357.945984,579.020508 
	C364.343109,573.985535 371.864532,569.857117 379.520050,567.040955 
	C402.167023,558.710022 426.014008,555.654724 449.849518,552.946106 
	C458.764771,551.932922 467.755432,551.582947 476.988129,550.910461 
	C477.235321,552.540344 477.442932,553.817505 477.620789,555.098877 
	C478.203949,559.300171 477.108765,561.067017 472.140533,561.309509 
	C457.982758,562.000854 443.931183,563.940491 430.922424,570.157471 
	C426.122894,572.451233 420.646423,574.882446 420.447662,581.087891 
	C420.250458,587.245178 425.710205,589.706543 430.302643,591.847839 
	C445.400940,598.887573 461.172211,603.411987 478.020142,601.006226 
	C485.934692,599.875977 489.722992,594.717102 489.731903,586.675903 
	C489.807495,518.515564 490.643829,450.341980 489.535156,382.200287 
	C488.929230,344.959595 469.697021,317.217865 437.278748,299.290924 
	C414.152039,286.502136 389.489716,282.864441 364.120880,292.185211 
	C357.895233,294.472595 351.702911,298.212555 346.903198,302.768097 
	C331.421967,317.461761 336.012726,340.376343 355.676056,348.946960 
	C367.927612,354.287018 380.289459,354.266968 392.470642,348.873260 
	C399.529327,345.747711 404.660645,340.701294 405.236877,332.433929 
	C405.819763,324.071472 401.332184,318.682404 394.491119,314.751160 
	C392.529846,313.624115 390.659821,312.338318 388.506927,310.972351 
	C392.135223,304.174408 398.140320,302.607086 404.289642,302.237091 
	C417.319336,301.453094 428.373383,305.789948 435.426270,317.242645 
	C442.537354,328.789856 441.735779,340.882233 435.184845,352.306854 
	C427.881714,365.043274 415.928253,371.917328 402.066010,375.294922 
	C377.491943,381.282410 354.728241,377.601105 335.033478,360.868469 
	C314.283936,343.239624 311.860168,313.847656 329.294647,294.680267 
	C337.128418,286.067841 346.854156,280.436615 357.857971,277.085083 
	C391.357025,266.882111 423.207581,272.155914 453.125153,289.027802 
	C480.421204,304.421234 498.900055,327.349091 506.207886,358.234741 
	C508.259552,366.905945 509.421753,375.997284 509.458069,384.902191 
	C509.733429,452.394592 509.600830,519.888611 509.721771,587.381897 
	C509.727509,590.581665 510.926605,593.779358 511.708008,597.664368 
	C516.737305,594.622986 516.939270,591.030273 516.935608,587.333069 
	C516.909058,560.169250 516.872864,533.005493 516.872681,505.841675 
	C516.872437,464.179443 516.192505,422.501434 517.120789,380.859558 
	C517.975708,342.510529 535.550659,312.642242 567.927551,292.017761 
	C593.070740,276.001221 620.765015,269.575897 650.432373,273.040070 
	C663.943909,274.617767 676.613159,279.000793 687.926147,287.000366 
	C715.433594,306.451172 714.275574,340.520844 691.257690,360.739258 
	C667.608887,381.511871 630.573425,383.840820 604.352844,366.488586 
	C588.263855,355.841217 581.972473,336.870270 589.031494,320.289154 
	C595.512817,305.065002 616.683533,297.187744 631.261169,304.768402 
	C633.568542,305.968292 635.317017,308.243134 637.947083,310.573090 
	C634.852112,312.459900 632.760193,313.716980 630.685974,315.002655 
	C617.395813,323.240295 617.485168,339.347443 630.862488,347.525085 
	C645.332031,356.370392 667.946167,353.829437 680.131714,342.022156 
	C686.413391,335.935455 689.097595,328.592957 688.006104,319.460754 
z"/>
<path fill="#F9F9F9" opacity="1.000000" stroke="none" 
	d="
M776.929443,258.212463 
	C762.642395,243.099228 748.355347,227.986023 733.343384,212.105972 
	C737.379395,215.155930 740.821045,217.502365 743.979431,220.182632 
	C777.486084,248.617020 803.113037,282.980591 822.121277,322.584869 
	C843.643982,367.428040 852.596741,414.743408 849.785828,464.066254 
	C846.457275,522.472229 827.853088,575.783386 792.329651,622.676086 
	C760.303711,664.951843 719.293640,695.967102 671.770996,719.071106 
	C641.198914,733.934204 608.738708,742.748474 576.322266,752.144897 
	C557.882568,757.489807 539.001526,763.221375 522.372192,772.470154 
	C495.119385,787.627319 466.013428,799.961365 441.749023,820.133179 
	C432.053955,828.193054 423.206177,837.272095 413.595398,846.239258 
	C398.731598,836.265686 383.180481,825.830872 366.712708,814.781006 
	C370.237457,813.558411 372.989136,812.738220 375.638184,811.664734 
	C407.983948,798.557129 440.319824,785.424927 472.648010,772.273987 
	C514.251709,755.349731 556.296753,739.993408 600.207214,729.729004 
	C642.710938,719.793518 682.077576,701.812927 717.569824,676.321350 
	C773.623901,636.061584 812.433777,583.290344 831.325684,516.367432 
	C841.091919,481.771515 843.340820,446.638458 839.838379,411.087341 
	C837.001099,382.288422 830.162781,354.160278 818.487976,327.821564 
	C809.641235,307.862976 797.342041,289.434753 786.183533,269.841125 
	C782.835083,265.641937 779.882202,261.927216 776.929443,258.212463 
z"/>
<path fill="#F7F7F7" opacity="1.000000" stroke="none" 
	d="
M457.979553,753.902527 
	C433.662018,746.798828 409.216522,741.183228 385.908081,732.511475 
	C327.106812,710.634766 276.154022,676.984985 237.255493,626.900452 
	C210.225128,592.096863 191.818863,553.133545 183.014694,509.825409 
	C177.251083,481.473907 174.307220,452.877960 177.104355,423.956329 
	C180.260071,391.327423 187.463470,359.659393 200.897919,329.608917 
	C215.418289,297.129395 234.811157,267.788391 259.302094,242.038483 
	C268.904175,231.942810 280.009155,223.275543 290.454437,213.985596 
	C291.002045,213.498535 291.781982,213.272720 292.453766,212.925293 
	C292.865295,213.356949 293.276794,213.788605 293.688293,214.220261 
	C292.447083,215.083923 291.125793,215.852966 289.976715,216.825516 
	C273.906189,230.426773 258.980316,245.228928 246.235901,261.964203 
	C226.866699,287.398773 211.576706,315.210724 201.290237,345.541626 
	C188.087402,384.471710 182.368973,424.578888 186.197815,465.548187 
	C191.950317,527.101562 214.754410,581.638367 255.629623,628.429138 
	C294.649445,673.096130 343.060791,703.384094 399.012695,721.718262 
	C422.831360,729.523132 447.351196,735.169128 471.462830,742.107178 
	C482.456360,745.270569 493.232941,749.187988 505.329987,753.165161 
	C497.482880,756.528809 491.048676,759.484558 484.435760,761.963745 
	C483.020874,762.494324 480.916534,761.426086 479.201202,760.872925 
	C472.242096,758.628723 465.310852,756.297974 457.979553,753.902527 
z"/>
<path fill="#FBFBFB" opacity="1.000000" stroke="none" 
	d="
M773.145752,753.120239 
	C755.542297,760.690735 737.733032,765.595825 718.800598,766.173584 
	C700.093079,766.744385 682.887329,762.170105 667.060974,752.275757 
	C661.721375,748.937622 656.448059,745.493408 651.231628,741.595825 
	C680.870178,741.900146 710.203857,739.947449 739.230469,733.532532 
	C712.894348,734.352051 686.558289,735.171570 660.222229,735.991089 
	C681.239929,721.791504 702.086060,707.699768 727.960449,705.292969 
	C747.944031,703.434204 767.519836,706.076416 786.493591,712.576538 
	C794.502563,715.320312 802.321350,718.631409 810.175659,721.810608 
	C816.851929,724.512817 817.311096,726.530762 811.092285,730.491089 
	C798.779785,738.332214 786.058411,745.531311 773.145752,753.120239 
z"/>
<path fill="#FAFAFB" opacity="1.000000" stroke="none" 
	d="
M367.217590,747.221741 
	C352.213013,757.229248 336.814911,765.214417 318.634216,765.985046 
	C297.679474,766.873169 277.299896,763.526917 258.239990,755.057861 
	C244.801178,749.086365 232.216705,741.149597 219.433914,733.773010 
	C216.098373,731.848083 213.447144,728.737366 209.536591,725.353516 
	C231.461502,713.954956 253.426086,707.210144 276.836700,704.929993 
	C310.705750,701.630981 338.145752,716.892944 364.601715,736.235474 
	C338.272766,735.380615 311.943817,734.525757 285.614868,733.670898 
	C314.766998,740.853210 344.347809,742.356018 374.585083,742.162231 
	C372.232513,743.786438 369.879944,745.410706 367.217590,747.221741 
z"/>
<path fill="#FBFBFB" opacity="1.000000" stroke="none" 
	d="
M876.824036,629.085083 
	C881.233032,629.616394 885.172913,630.257690 889.138550,630.603149 
	C894.906677,631.105713 895.668152,632.469543 892.457520,637.491089 
	C883.197388,651.973877 871.322693,664.042419 857.749573,674.461670 
	C840.786926,687.483032 821.975098,696.311646 800.482788,698.484741 
	C780.459839,700.509399 762.052429,695.197998 743.197876,685.260315 
	C773.065308,681.024902 799.693420,671.277039 825.847168,660.057678 
	C825.691589,659.520203 825.535950,658.982788 825.380310,658.445312 
	C801.694153,665.137817 778.007935,671.830383 754.321777,678.522888 
	C754.114014,678.176819 753.906250,677.830750 753.698486,677.484619 
	C755.050964,676.023499 756.375183,674.534973 757.760681,673.105835 
	C764.251892,666.409790 770.428406,659.364502 777.323425,653.112488 
	C798.903503,633.545044 824.907715,626.753540 853.413208,627.802002 
	C861.069397,628.083496 868.715576,628.635132 876.824036,629.085083 
z"/>
<path fill="#FBFBFB" opacity="1.000000" stroke="none" 
	d="
M263.496216,676.420410 
	C250.965637,672.817444 238.830978,669.327515 226.697952,665.831970 
	C220.314392,663.992676 213.952972,662.071899 207.538483,660.348145 
	C205.891220,659.905518 204.080750,660.070190 200.909668,659.861267 
	C227.326523,672.482605 253.651932,680.498901 281.581207,685.390686 
	C258.475159,698.223328 234.699936,702.715454 209.587067,695.386536 
	C177.541428,686.034363 153.643143,665.543640 134.590256,638.792419 
	C130.200348,632.628784 131.418533,630.651001 139.016083,630.287354 
	C152.296570,629.651672 165.553238,628.289124 178.836823,627.993530 
	C210.609772,627.286682 237.175629,639.144226 258.770172,662.337891 
	C263.243439,667.142456 267.665131,671.995117 271.542450,677.765503 
	C268.992584,677.354065 266.442719,676.942566 263.496216,676.420410 
z"/>
<path fill="#FBFBFB" opacity="1.000000" stroke="none" 
	d="
M838.817688,595.836182 
	C852.267578,585.904846 865.410583,576.162354 878.553589,566.419861 
	C878.127441,565.815796 877.701294,565.211670 877.275146,564.607605 
	C857.856750,577.208191 838.438293,589.808777 819.019836,602.409302 
	C818.544189,602.060913 818.068604,601.712463 817.592957,601.364075 
	C822.518616,591.413879 826.746460,581.038635 832.501160,571.593567 
	C849.547119,543.616577 875.990295,530.516113 907.484863,526.039917 
	C914.740173,525.008789 922.013306,524.095459 929.289612,523.222595 
	C934.213867,522.631897 935.457458,523.919983 934.110168,528.792480 
	C929.973999,543.750549 922.276428,556.963623 913.190125,569.344666 
	C899.762146,587.641846 883.823120,602.931091 861.586975,610.169312 
	C846.923523,614.942627 831.946533,616.057800 816.709778,613.909241 
	C815.126526,613.685913 813.589478,613.135132 811.494385,612.598999 
	C820.833496,606.869629 829.672119,601.447327 838.817688,595.836182 
z"/>
<path fill="#FBFBFB" opacity="1.000000" stroke="none" 
	d="
M130.372131,588.627930 
	C112.893013,571.866943 99.834740,552.656189 92.563042,529.781860 
	C90.538315,523.412720 91.466148,522.376770 97.955513,523.493652 
	C112.366066,525.973816 127.098282,527.411560 141.068436,531.454468 
	C171.728943,540.327393 191.811386,561.359253 203.919678,590.441101 
	C205.429535,594.067505 206.770828,597.764160 207.445740,602.205078 
	C188.591125,590.220276 169.736496,578.235535 150.881882,566.250732 
	C169.647659,584.938599 191.355164,599.333679 214.197220,612.251587 
	C182.067154,619.215332 154.297653,611.305969 130.372131,588.627930 
z"/>
<path fill="#FBFBFB" opacity="1.000000" stroke="none" 
	d="
M863.725220,499.726807 
	C860.231995,503.717163 856.971375,507.440063 852.723206,512.290466 
	C853.926758,496.007172 854.232178,480.963837 860.191833,466.851044 
	C868.677490,446.756622 883.301086,432.083313 901.907288,421.297211 
	C910.228516,416.473358 919.013733,412.440399 927.650940,408.175232 
	C932.086609,405.984863 933.280701,406.793701 933.261658,411.757629 
	C933.192017,429.917572 929.631531,447.419586 923.318115,464.411163 
	C917.486023,480.107269 909.146606,494.111633 896.064514,504.894135 
	C883.122253,515.561401 868.145142,521.307861 850.327026,523.382996 
	C865.527222,505.569946 880.186523,488.644287 890.450928,468.652466 
	C890.037964,468.342224 889.624939,468.031952 889.211975,467.721710 
	C880.793884,478.300934 872.375793,488.880127 863.725220,499.726807 
z"/>
<path fill="#FBFBFB" opacity="1.000000" stroke="none" 
	d="
M160.427551,455.591797 
	C171.007278,472.828491 173.156372,491.710297 172.596069,511.880676 
	C160.576370,496.942078 148.556671,482.003479 136.536972,467.064850 
	C136.147736,467.363281 135.758499,467.661682 135.369247,467.960083 
	C145.642975,488.540527 160.879669,505.591522 176.614807,523.393311 
	C164.862808,522.730103 155.044312,518.936035 145.456909,514.381287 
	C128.160248,506.164093 116.212563,492.709320 107.992775,475.714203 
	C98.366325,455.810730 93.593765,434.722168 93.057945,412.661591 
	C92.919800,406.973877 94.397591,406.000031 99.489456,408.692383 
	C110.641670,414.589172 121.837593,420.435364 132.704697,426.830597 
	C144.424942,433.727844 153.044037,443.872070 160.427551,455.591797 
M133.933350,463.204163 
	C133.365982,463.138489 132.798615,463.072815 131.468292,462.918823 
	C132.452545,463.824921 132.871628,464.210754 133.631973,465.286865 
	C134.318420,466.046021 135.004883,466.805176 135.691345,467.564301 
	C135.995865,467.284821 136.300385,467.005310 136.604904,466.725830 
	C135.815582,465.734161 135.026245,464.742493 133.933350,463.204163 
z"/>
<path fill="#FAFAFB" opacity="1.000000" stroke="none" 
	d="
M653.913635,703.908813 
	C640.880127,708.335754 628.188599,712.604675 615.497009,716.873535 
	C615.274780,716.372437 615.052551,715.871277 614.830322,715.370178 
	C632.188416,701.768982 648.440430,687.068359 660.994446,668.587463 
	C645.358276,682.471863 629.722168,696.356201 614.085999,710.240601 
	C613.513367,709.833801 612.940735,709.426941 612.368103,709.020142 
	C613.481018,704.101929 614.356140,699.115356 615.747131,694.277100 
	C622.496521,670.801331 637.634338,653.336609 656.887451,639.416321 
	C669.248840,630.478760 682.648254,622.976746 695.582825,614.831909 
	C698.852478,612.773071 700.631470,613.796204 700.836670,617.530701 
	C702.756287,652.472412 689.044678,687.162354 653.913635,703.908813 
M664.857727,665.173035 
	C664.697388,664.844971 664.537048,664.516907 664.376709,664.188904 
	C664.189758,664.399231 664.002808,664.609558 663.124390,665.124268 
	C663.127136,665.489990 663.129822,665.855713 663.132507,666.221436 
	C663.588623,666.026062 664.044739,665.830627 664.857727,665.173035 
M663.000000,667.500000 
	C662.799988,667.366638 662.600037,667.233337 662.400024,667.099976 
	C662.433350,667.399963 662.466675,667.700012 663.000000,667.500000 
z"/>
<path fill="#FBFBFB" opacity="1.000000" stroke="none" 
	d="
M409.928619,713.151733 
	C410.663818,713.922668 411.399048,714.693542 412.695679,716.053162 
	C377.564117,710.488281 348.368958,697.481995 333.280670,663.524414 
	C326.818512,648.980774 324.626068,633.600647 326.002960,617.729858 
	C326.267731,614.677673 327.199097,612.691284 330.720795,614.621643 
	C352.680084,626.658630 373.578003,640.144531 390.653839,658.797852 
	C403.243805,672.550903 410.755402,688.727844 413.452698,707.151550 
	C413.553711,707.841614 413.222717,708.594910 412.643860,709.226562 
	C398.178375,696.895752 384.175049,684.642090 370.124756,672.442505 
	C368.791077,671.284607 367.163055,670.465698 365.671692,669.489380 
	C377.715088,687.048462 393.044983,700.911682 409.928619,713.151733 
z"/>
<path fill="#FBFBFB" opacity="1.000000" stroke="none" 
	d="
M293.777985,654.258789 
	C280.993439,644.679932 269.216736,634.496094 262.471283,620.075623 
	C253.110443,600.063965 252.103180,579.335449 259.325439,558.390686 
	C261.486816,552.122742 264.113953,546.003113 266.783020,539.927673 
	C268.141479,536.835510 270.342010,535.240417 273.071991,538.810242 
	C287.667297,557.895569 301.115356,577.642517 308.526428,600.835999 
	C315.010345,621.127991 313.131927,641.063660 306.369354,660.789062 
	C305.819214,660.943420 305.269104,661.097839 304.718964,661.252197 
	C296.592407,639.447815 288.465851,617.643372 280.339294,595.838989 
	C283.536194,616.957336 290.141052,637.027710 298.785309,657.895935 
	C296.407196,656.179626 295.234619,655.333374 293.777985,654.258789 
z"/>
<path fill="#FAFAFA" opacity="1.000000" stroke="none" 
	d="
M747.041565,592.035034 
	C743.640808,601.454285 740.316223,610.901855 736.820862,620.285889 
	C732.010498,633.200073 727.074219,646.067444 722.178833,658.949890 
	C721.911682,659.652832 721.525024,660.310364 720.817871,661.760193 
	C712.927551,640.618652 711.256226,620.128113 718.289917,599.313782 
	C725.845154,576.955933 738.815063,557.688477 752.901245,539.068054 
	C755.567566,535.543518 757.464661,536.793030 759.171570,539.905945 
	C777.842407,573.957336 777.715881,614.677246 745.344116,643.593628 
	C741.500732,647.026855 737.420532,650.200012 733.374023,653.397461 
	C732.310425,654.237854 730.962036,654.717834 728.514954,656.015198 
	C737.417603,634.660339 743.345581,613.884216 747.507446,592.369019 
	C747.397766,591.843323 747.320496,591.553467 747.243286,591.263611 
	C747.176025,591.520752 747.108765,591.777893 747.041565,592.035034 
z"/>
<path fill="#FAFAFB" opacity="1.000000" stroke="none" 
	d="
M166.815613,417.070770 
	C160.740265,400.192230 154.792221,383.657867 148.844162,367.123505 
	C151.002182,389.312531 158.490616,410.061615 168.380081,431.603729 
	C149.882446,422.476898 136.533127,410.392731 129.066376,392.563324 
	C121.746887,375.085480 121.451508,356.821960 124.588684,338.519836 
	C126.203545,329.098846 129.006699,319.851379 131.741776,310.665070 
	C133.144806,305.952759 135.069611,305.563019 138.424133,308.877808 
	C155.951553,326.197632 170.993332,344.994781 174.625336,370.521729 
	C176.784805,385.699188 174.033066,400.367859 170.434967,414.977570 
	C169.999451,416.746002 169.501129,418.498962 168.832962,421.005371 
	C167.995758,419.415009 167.469315,418.415009 166.815613,417.070770 
z"/>
<path fill="#FAFAFA" opacity="1.000000" stroke="none" 
	d="
M853.001404,399.024414 
	C847.410217,371.161499 855.127808,347.324951 872.698547,326.211212 
	C877.062500,320.967255 881.589111,315.855530 886.142029,310.773651 
	C887.654297,309.085693 889.483093,307.681366 891.745422,305.620697 
	C893.127319,308.063141 894.446167,309.778351 895.141846,311.717163 
	C903.469299,334.926300 906.245911,358.742279 900.550476,382.859314 
	C895.187866,405.567169 880.337646,420.845551 858.945740,431.190552 
	C867.591675,410.957550 875.711243,391.226044 876.648499,369.502075 
	C870.809143,386.533020 864.969788,403.563995 859.130432,420.594940 
	C858.649536,420.548187 858.168579,420.501404 857.687683,420.454651 
	C856.145264,413.453705 854.602844,406.452759 853.001404,399.024414 
z"/>
<path fill="#FAFAFA" opacity="1.000000" stroke="none" 
	d="
M218.231293,475.260681 
	C226.499924,465.942749 234.383911,456.743774 242.772232,448.030334 
	C246.420166,444.240967 247.841461,445.082001 249.182480,450.176849 
	C253.937927,468.243683 257.286469,486.476227 257.060486,505.280243 
	C256.777130,528.857666 245.214905,554.738525 226.404663,571.609680 
	C228.494980,549.216003 230.489304,527.850769 232.483643,506.485474 
	C231.794312,506.399506 231.104980,506.313538 230.415649,506.227570 
	C227.700455,524.852173 224.985260,543.476746 222.357376,561.502441 
	C205.125320,537.401550 199.777740,504.802948 218.231293,475.260681 
z"/>
<path fill="#FAFAFB" opacity="1.000000" stroke="none" 
	d="
M819.710266,514.964478 
	C819.379822,532.344727 813.969543,547.842529 803.253662,562.019287 
	C802.000916,542.134888 800.356018,522.726685 793.961243,504.147186 
	C795.833008,525.872437 797.704712,547.597656 799.576477,569.322876 
	C799.117432,569.484924 798.658447,569.646973 798.199402,569.809082 
	C790.200806,560.918030 782.768494,551.664124 777.590393,540.636475 
	C767.957458,520.121277 768.371948,498.682709 771.514160,477.037781 
	C772.824890,468.008606 774.992004,459.102783 776.803467,450.147675 
	C777.831787,445.063629 779.105835,444.385681 783.286377,447.687256 
	C799.033569,460.123596 811.339233,475.202271 816.814636,494.858215 
	C818.576233,501.182159 818.790649,507.937103 819.710266,514.964478 
z"/>
<path fill="#FBFBFC" opacity="1.000000" stroke="none" 
	d="
M594.145996,827.840820 
	C571.755432,807.712280 545.532410,794.462952 517.807861,781.302795 
	C526.281616,776.976501 533.709229,772.982605 541.353516,769.458801 
	C542.810120,768.787354 545.256836,769.641541 547.020752,770.352600 
	C572.574768,780.653992 598.058350,791.130371 623.630676,801.385620 
	C633.645447,805.401855 643.839844,808.970337 653.949341,812.750854 
	C655.588013,813.363647 657.210938,814.018616 659.519104,814.918396 
	C643.233398,825.743469 627.658997,836.095703 611.992554,846.509216 
	C606.048889,840.271790 600.234009,834.169373 594.145996,827.840820 
z"/>
<path fill="#FAFAFA" opacity="1.000000" stroke="none" 
	d="
M219.677368,408.678131 
	C211.126404,422.782837 202.575455,436.887573 194.086975,450.889221 
	C191.160873,430.981140 191.022873,411.213135 202.938614,393.194275 
	C213.038040,377.922028 227.244171,367.921509 243.919296,361.057007 
	C246.225876,360.107452 248.532715,359.142303 250.893417,358.344025 
	C254.761703,357.035950 256.562897,358.197418 255.865814,362.228729 
	C253.435562,376.283569 251.611710,390.542175 247.817307,404.241364 
	C240.272934,431.479279 222.188232,449.842133 195.169479,460.284546 
	C203.669052,443.580292 212.168610,426.876038 220.889084,409.662720 
	C221.307831,408.920593 221.388138,408.652374 221.606384,408.136169 
	C221.861816,407.324951 221.861816,406.726532 221.861816,405.407501 
	C221.057602,406.495026 220.688171,406.994568 220.152130,407.656189 
	C219.772980,408.065552 219.670288,408.352173 219.677368,408.678131 
z"/>
<path fill="#FAFAFB" opacity="1.000000" stroke="none" 
	d="
M806.224731,410.483215 
	C814.641357,427.174927 823.057983,443.866608 832.132751,461.863647 
	C814.023315,454.159149 800.080078,443.803406 789.937073,428.595123 
	C778.733826,411.797058 774.744080,392.661285 771.921631,373.155609 
	C771.374268,369.372925 771.269165,365.528259 770.862610,361.722595 
	C770.480042,358.142273 772.157349,356.976288 775.289490,358.159729 
	C803.926086,368.979950 826.545837,385.687012 832.999084,417.913208 
	C835.203552,428.921722 834.177246,439.900543 832.532715,451.075684 
	C824.179138,437.159546 816.040588,423.601593 807.480347,409.483765 
	C806.667908,408.927612 806.277283,408.931335 805.886597,408.935089 
	C805.999329,409.451141 806.112000,409.967163 806.224731,410.483215 
M804.830383,408.262817 
	C805.222717,408.172394 805.615051,408.081970 806.007385,407.991547 
	C805.922546,407.736542 805.796021,407.253998 805.759216,407.260712 
	C805.232544,407.357239 804.718079,407.519775 804.830383,408.262817 
z"/>
<path fill="#F9F9F9" opacity="1.000000" stroke="none" 
	d="
M189.064148,284.032532 
	C185.847382,302.370789 185.991959,320.790344 187.765808,339.249359 
	C187.195541,339.812225 186.625275,340.375061 186.054993,340.937927 
	C185.377106,339.448029 185.022293,337.663818 183.973145,336.512085 
	C166.451828,317.278107 162.257431,295.291595 170.016739,270.697418 
	C174.403900,256.791656 180.745422,243.927643 189.736465,232.403641 
	C194.497833,226.300903 195.898239,226.364777 198.825073,233.260239 
	C201.873016,240.441055 204.873276,247.649124 207.630188,254.945114 
	C215.239182,275.081726 212.771072,294.500488 202.776108,313.137512 
	C199.504425,319.238068 195.465515,324.927155 190.815857,330.804626 
	C190.815857,315.515717 190.815857,300.226776 190.936493,284.121033 
	C191.259460,280.225983 191.461792,277.147705 191.664108,274.069427 
	C191.211014,274.045044 190.757935,274.020691 190.304840,273.996307 
	C189.891266,277.341705 189.477707,280.687134 189.064148,284.032532 
z"/>
<path fill="#FAFAFB" opacity="1.000000" stroke="none" 
	d="
M836.143005,282.908783 
	C836.143005,299.377960 836.143005,315.847137 836.143005,332.316315 
	C835.782776,332.456055 835.422546,332.595795 835.062317,332.735535 
	C833.724182,330.494751 832.412231,328.237793 831.043579,326.015808 
	C823.313721,313.466522 816.869690,300.503296 815.499878,285.435364 
	C814.530579,274.773743 815.670166,264.482544 819.372498,254.544525 
	C822.323853,246.622574 825.875610,238.925278 829.116516,231.109848 
	C830.534363,227.690720 832.474976,226.321533 835.183655,229.771179 
	C850.915649,249.806335 861.233154,271.955505 860.291077,298.033905 
	C859.686279,314.774292 851.065369,327.904114 839.417664,339.658325 
	C840.943481,320.964050 841.439880,302.358032 838.038757,283.065430 
	C837.642578,280.220459 837.224670,278.190308 836.806824,276.160156 
	C836.585510,276.190857 836.364258,276.221527 836.143005,276.252228 
	C836.143005,278.471069 836.143005,280.689941 836.143005,282.908783 
z"/>
<path fill="#FAF9FA" opacity="1.000000" stroke="none" 
	d="
M277.799377,308.788208 
	C269.407288,318.661133 261.903381,328.955719 252.844162,337.625000 
	C240.115707,349.805603 223.400757,352.800964 205.747147,354.526398 
	C217.635849,343.397614 229.043167,332.719421 240.450485,322.041260 
	C239.976562,321.492279 239.502640,320.943329 239.028717,320.394348 
	C229.249130,328.556427 219.469559,336.718506 209.668655,344.898407 
	C213.763535,313.677582 233.493958,293.884674 265.446503,289.059387 
	C271.035767,288.215363 276.680511,287.663239 282.320099,287.270447 
	C284.154388,287.142639 286.053955,287.951263 287.923645,288.331543 
	C287.486511,290.183228 287.416992,292.233612 286.543640,293.849548 
	C283.858826,298.817200 280.866364,303.618500 277.799377,308.788208 
z"/>
<path fill="#FAF9FA" opacity="1.000000" stroke="none" 
	d="
M797.729004,333.265686 
	C804.956665,340.115387 811.923523,346.724426 819.802368,354.198578 
	C805.433167,352.690399 792.479370,350.893402 781.137085,343.095703 
	C761.183105,329.377686 748.186646,310.188110 736.931580,287.705658 
	C754.704834,286.808777 770.501343,289.608063 785.381958,297.362396 
	C804.641052,307.398346 813.328064,324.408813 817.060486,345.973877 
	C807.677307,337.909882 799.006348,330.457947 790.335388,323.006012 
	C789.787354,323.573730 789.239319,324.141449 788.691284,324.709167 
	C791.616943,327.481140 794.542603,330.253082 797.729004,333.265686 
M788.169739,324.191315 
	C788.580627,323.687012 788.991516,323.182739 789.402405,322.678436 
	C788.395386,322.566864 787.388367,322.455261 786.381348,322.343658 
	C786.732300,322.790314 787.083313,323.237000 788.169739,324.191315 
z"/>
<path fill="#F9F9F9" opacity="1.000000" stroke="none" 
	d="
M242.299835,231.281937 
	C243.717422,226.120651 245.040665,221.356812 246.363922,216.592987 
	C245.929276,216.440979 245.494629,216.288971 245.059982,216.136963 
	C243.230026,221.194290 241.249756,226.203506 239.611923,231.322311 
	C237.941650,236.542480 236.458694,241.834183 235.168182,247.161057 
	C233.837692,252.652847 232.838074,258.224823 230.430450,264.277466 
	C227.937592,257.666260 224.685715,251.229996 223.112762,244.406708 
	C220.012970,230.960175 222.210495,217.957855 228.813721,205.776657 
	C236.281464,192.000717 245.889328,179.969391 258.253204,170.279480 
	C262.661987,166.824203 264.024841,167.534973 264.821198,173.056061 
	C266.752228,186.444199 268.271576,199.837997 265.884094,213.343414 
	C263.766205,225.323715 258.600037,235.757919 249.940170,244.326859 
	C245.728683,248.494141 241.218536,252.359589 236.599182,256.585266 
	C238.452896,248.350220 240.329193,240.014801 242.299835,231.281937 
z"/>
<path fill="#FAF9FA" opacity="1.000000" stroke="none" 
	d="
M771.239075,237.733139 
	C760.339661,223.032242 758.606445,206.542465 760.153748,189.410278 
	C760.788330,182.384537 762.133728,175.423004 763.266479,167.675079 
	C765.584229,168.785980 767.045288,169.160782 768.087952,170.034729 
	C784.333313,183.651505 797.558411,199.420792 803.053833,220.463577 
	C807.056946,235.791916 804.609497,250.076828 795.187805,263.766479 
	C792.451843,247.932343 789.069214,232.836990 781.438477,219.039108 
	C784.563782,231.914597 787.689087,244.790085 790.814331,257.665558 
	C790.413818,257.860138 790.013245,258.054749 789.612671,258.249329 
	C783.557800,251.508392 777.502991,244.767441 771.239075,237.733139 
z"/>
<path fill="#F9F9F9" opacity="1.000000" stroke="none" 
	d="
M352.023224,177.054169 
	C349.807434,176.941727 348.018402,176.844025 346.229340,176.746323 
	C346.106659,176.457520 345.983948,176.168732 345.861237,175.879929 
	C358.615295,168.892059 371.369354,161.904190 384.123383,154.916336 
	C383.822540,154.327972 383.521698,153.739624 383.220856,153.151276 
	C370.167908,159.651443 357.114960,166.151627 343.524200,172.919617 
	C350.631805,155.215164 361.604980,141.715363 379.454285,134.933334 
	C394.785339,129.108154 410.964539,128.394852 427.145782,128.345947 
	C431.255280,128.333527 432.290314,130.555450 429.768250,134.379578 
	C411.483307,162.104401 388.492401,181.446396 352.023224,177.054169 
z"/>
<path fill="#FAF9FA" opacity="1.000000" stroke="none" 
	d="
M677.082275,160.937241 
	C678.982971,164.956985 680.732910,168.642349 682.721436,172.830215 
	C669.037354,165.956863 656.051575,159.434250 643.065735,152.911652 
	C642.759216,153.504639 642.452698,154.097626 642.146179,154.690613 
	C655.119446,161.782074 668.092712,168.873520 681.646057,176.282043 
	C645.053589,182.683243 607.065918,162.363205 595.205322,130.267181 
	C596.315552,129.787216 597.431763,128.922089 598.590332,128.860977 
	C617.231812,127.877388 635.489319,129.377548 652.647217,137.612976 
	C663.203369,142.679718 670.995056,150.659836 677.082275,160.937241 
z"/>
<path fill="#F8F8F9" opacity="1.000000" stroke="none" 
	d="
M256.910583,263.829346 
	C255.161621,264.700500 253.743057,265.393036 251.196594,266.636261 
	C261.684601,249.630798 273.514771,236.558350 293.188141,233.324249 
	C307.948486,230.897797 322.372437,231.556488 336.983826,236.564957 
	C314.942566,263.526123 285.077515,282.263123 244.418854,273.035583 
	C259.246490,266.276154 272.952698,260.027924 286.658936,253.779694 
	C286.510529,253.367188 286.362152,252.954666 286.213745,252.542160 
	C276.332367,255.589447 266.573364,258.995209 256.910583,263.829346 
z"/>
<path fill="#F8F8F9" opacity="1.000000" stroke="none" 
	d="
M779.849487,273.944122 
	C777.369385,274.025940 774.824829,273.775177 772.419189,274.241302 
	C749.411865,278.698975 729.386047,271.891418 711.503296,257.809174 
	C703.614197,251.596619 696.382202,244.549576 689.222778,236.820114 
	C705.439819,231.742508 721.282288,230.412231 737.584351,234.592438 
	C754.630371,238.963409 765.700134,250.150543 774.006348,265.164825 
	C773.672791,265.617340 773.416687,265.688965 773.160583,265.760559 
	C772.761597,265.499054 772.362671,265.237549 771.382446,264.634766 
	C761.042236,260.894379 751.966003,255.434692 741.646790,253.726349 
	C741.498840,254.129883 741.350830,254.533417 741.202820,254.936951 
	C750.777710,259.013672 760.352600,263.090393 769.927490,267.167114 
	C772.942017,268.687347 775.956482,270.207581 779.552673,272.014221 
	C780.039368,272.848450 779.944397,273.396271 779.849487,273.944122 
z"/>
<path fill="#F9F9F9" opacity="1.000000" stroke="none" 
	d="
M720.158386,176.593201 
	C725.310547,186.333176 730.462646,196.073135 736.258606,207.030121 
	C706.891174,190.791992 692.721985,180.674088 688.541687,133.477554 
	C694.742310,130.896622 715.570984,143.123856 729.409424,156.876450 
	C743.183411,170.565033 747.473877,190.406036 741.691406,209.596725 
	C735.121033,198.543610 728.457764,187.334198 721.371521,175.676666 
	C720.381348,175.224533 719.814026,175.220505 719.246765,175.216492 
	C719.550659,175.675400 719.854492,176.134293 720.158386,176.593201 
z"/>
<path fill="#F9F9F9" opacity="1.000000" stroke="none" 
	d="
M305.416199,175.117477 
	C298.543121,186.428299 291.670044,197.739105 284.776886,209.082977 
	C281.989258,196.825531 280.897552,184.215851 286.515137,171.871338 
	C292.857391,157.934372 304.447174,148.960220 316.849182,141.027191 
	C322.113556,137.659790 328.045776,135.282150 333.816376,132.782196 
	C336.946655,131.426056 338.418060,132.092758 337.433807,136.232880 
	C335.096710,146.063538 334.009369,156.235306 331.117645,165.879623 
	C326.917908,179.886093 318.432129,190.929016 305.182037,197.962524 
	C300.672272,200.356445 296.483429,203.354919 292.147949,206.077148 
	C291.756134,205.827545 291.364349,205.577957 290.972534,205.328354 
	C296.044739,195.893677 301.116974,186.458984 306.518250,176.493729 
	C306.826355,175.388184 306.805389,174.813217 306.784424,174.238251 
	C306.328339,174.531326 305.872284,174.824402 305.416199,175.117477 
z"/>
<path fill="#F8F8F9" opacity="1.000000" stroke="none" 
	d="
M717.354736,212.755219 
	C720.203979,213.351685 722.645752,213.858444 725.064392,214.458145 
	C725.473267,214.559494 725.782776,215.061264 726.553101,215.747833 
	C706.123657,224.685791 685.629578,226.527176 665.492249,217.158661 
	C654.908813,212.234909 645.459351,204.847733 635.611511,198.399246 
	C634.247314,197.505966 633.538818,195.611191 632.526733,194.180084 
	C634.006836,193.272079 635.375732,191.981293 636.983887,191.514420 
	C655.927673,186.014709 674.978455,184.748871 693.945923,191.199371 
	C704.632690,194.833740 713.425110,201.542145 721.151367,210.116898 
	C707.359375,207.867706 693.567383,205.618515 679.775391,203.369308 
	C679.689758,203.869705 679.604187,204.370102 679.518555,204.870499 
	C691.992188,207.479248 704.465820,210.087997 717.354736,212.755219 
z"/>
<path fill="#F8F8F9" opacity="1.000000" stroke="none" 
	d="
M353.174072,187.026001 
	C371.827942,186.741898 389.808960,190.219818 394.351715,195.370987 
	C381.262756,206.911407 367.037231,216.438278 350.007782,220.894897 
	C332.984436,225.349899 316.431763,223.356018 299.507385,215.147461 
	C313.868042,211.982895 327.201965,209.044586 340.535858,206.106262 
	C328.459320,204.853470 317.051941,208.803986 304.353699,210.347641 
	C317.956024,195.826416 333.925079,188.539963 353.174072,187.026001 
z"/>
<path fill="#E6E7E6" opacity="1.000000" stroke="none" 
	d="
M438.933563,629.113098 
	C469.859039,632.731445 500.916473,633.816589 531.990417,632.699707 
	C551.386414,632.002502 570.731140,629.880432 590.468262,628.631348 
	C590.877075,629.199707 590.916565,629.534607 590.956055,629.869446 
	C540.648193,639.551514 490.263031,639.505310 439.391174,630.534180 
	C438.958679,629.702271 438.946136,629.407715 438.933563,629.113098 
z"/>
<path fill="#141414" opacity="1.000000" stroke="none" 
	d="
M410.076813,712.807983 
	C393.044983,700.911682 377.715088,687.048462 365.671692,669.489380 
	C367.163055,670.465698 368.791077,671.284607 370.124756,672.442505 
	C384.175049,684.642090 398.178375,696.895752 412.399261,709.413269 
	C411.810883,710.616089 411.017944,711.540161 410.076813,712.807983 
z"/>
<path fill="#141414" opacity="1.000000" stroke="none" 
	d="
M769.974365,266.822113 
	C760.352600,263.090393 750.777710,259.013672 741.202820,254.936951 
	C741.350830,254.533417 741.498840,254.129883 741.646790,253.726349 
	C751.966003,255.434692 761.042236,260.894379 771.017517,264.586304 
	C770.829590,265.411743 770.425354,265.944427 769.974365,266.822113 
z"/>
<path fill="#141414" opacity="1.000000" stroke="none" 
	d="
M780.184387,273.893890 
	C779.944397,273.396271 780.039368,272.848450 779.931274,272.073792 
	C778.797913,267.558960 777.867615,263.270905 776.933350,258.597656 
	C779.882202,261.927216 782.835083,265.641937 785.881836,269.683868 
	C784.156921,271.288605 782.338135,272.566132 780.184387,273.893890 
z"/>
<path fill="#AEAFAF" opacity="1.000000" stroke="none" 
	d="
M591.366699,629.929688 
	C590.916565,629.534607 590.877075,629.199707 590.867493,628.612427 
	C596.382263,627.410095 601.867188,626.460266 607.352051,625.510437 
	C607.430664,625.942810 607.509216,626.375244 607.587830,626.807678 
	C602.317627,627.868408 597.047485,628.929199 591.366699,629.929688 
z"/>
<path fill="#AEAFAF" opacity="1.000000" stroke="none" 
	d="
M438.611938,628.981567 
	C438.946136,629.407715 438.958679,629.702271 439.007629,630.437622 
	C434.385712,630.040955 429.727386,629.203491 425.069061,628.365967 
	C425.153351,627.946899 425.237671,627.527771 425.321991,627.108643 
	C429.644745,627.689087 433.967529,628.269531 438.611938,628.981567 
z"/>
<path fill="#525252" opacity="1.000000" stroke="none" 
	d="
M189.349518,283.968872 
	C189.477707,280.687134 189.891266,277.341705 190.304840,273.996307 
	C190.757935,274.020691 191.211014,274.045044 191.664108,274.069427 
	C191.461792,277.147705 191.259460,280.225983 190.922638,283.697937 
	C190.403717,284.029510 190.019287,283.967377 189.349518,283.968872 
z"/>
<path fill="#525252" opacity="1.000000" stroke="none" 
	d="
M836.585083,282.914978 
	C836.143005,280.689941 836.143005,278.471069 836.143005,276.252228 
	C836.364258,276.221527 836.585510,276.190857 836.806824,276.160156 
	C837.224670,278.190308 837.642578,280.220459 837.981323,282.649414 
	C837.610596,283.005890 837.318848,282.963531 836.585083,282.914978 
z"/>
<path fill="#F9F9F9" opacity="1.000000" stroke="none" 
	d="
M731.887451,212.116653 
	C731.342957,211.949524 730.798462,211.782394 730.253967,211.615265 
	C730.831909,211.450668 731.409912,211.286057 732.099548,211.466705 
	C732.211243,211.811966 731.887451,212.116653 731.887451,212.116653 
z"/>
<path fill="#141414" opacity="1.000000" stroke="none" 
	d="
M773.311829,265.887726 
	C773.416687,265.688965 773.672791,265.617340 774.303101,265.406921 
	C774.272522,265.517059 773.867798,265.765961 773.311829,265.887726 
z"/>
<path fill="#F9F9F9" opacity="1.000000" stroke="none" 
	d="
M732.377930,211.664856 
	C732.811584,211.888550 733.078552,212.259338 733.345581,212.630127 
	C732.945496,212.682632 732.545410,212.735107 732.016357,212.452118 
	C731.887451,212.116653 732.211243,211.811966 732.377930,211.664856 
z"/>
<path fill="none" opacity="1.000000" stroke="none"
	d="
M134.236923,463.750824 
	C135.026245,464.742493 135.815582,465.734161 136.604904,466.725830 
	C136.300385,467.005310 135.995865,467.284821 135.691345,467.564301 
	C135.004883,466.805176 134.318420,466.046021 133.703217,464.736267 
	C133.928619,464.040710 134.082764,463.895752 134.236923,463.750824 
z"/>
<path fill="none" opacity="1.000000" stroke="none"
	d="
M133.532593,464.391113 
	C132.871628,464.210754 132.452545,463.824921 131.468292,462.918823 
	C132.798615,463.072815 133.365982,463.138489 134.085144,463.477478 
	C134.082764,463.895752 133.928619,464.040710 133.532593,464.391113 
z"/>
<path fill="none" opacity="1.000000" stroke="none"
	d="
M663.815796,664.819824 
	C664.002808,664.609558 664.189758,664.399231 664.376709,664.188904 
	C664.537048,664.516907 664.697388,664.844971 664.513062,665.196045 
	C664.050842,665.085999 663.933289,664.952942 663.815796,664.819824 
z"/>
<path fill="none" opacity="1.000000" stroke="none"
	d="
M664.334595,665.427124 
	C664.044739,665.830627 663.588623,666.026062 663.132507,666.221436 
	C663.129822,665.855713 663.127136,665.489990 663.470093,664.972046 
	C663.933289,664.952942 664.050842,665.085999 664.334595,665.427124 
z"/>
<path fill="none" opacity="1.000000" stroke="none"
	d="
M662.750000,667.750000 
	C662.466675,667.700012 662.433350,667.399963 662.400024,667.099976 
	C662.600037,667.233337 662.799988,667.366638 662.750000,667.750000 
z"/>
<path fill="none" opacity="1.000000" stroke="none"
	d="
M747.015503,592.009033 
	C747.108765,591.777893 747.176025,591.520752 747.243286,591.263611 
	C747.320496,591.553467 747.397766,591.843323 747.209595,592.028992 
	C746.944153,591.924866 746.989441,591.983032 747.015503,592.009033 
z"/>
<path fill="none" opacity="1.000000" stroke="none"
	d="
M220.318756,407.494141 
	C220.688171,406.994568 221.057602,406.495026 221.861816,405.407501 
	C221.861816,406.726532 221.861816,407.324951 221.355072,407.914337 
	C220.671799,407.768219 220.495285,407.631165 220.318756,407.494141 
z"/>
<path fill="none" opacity="1.000000" stroke="none"
	d="
M219.947357,408.888794 
	C219.670288,408.352173 219.772980,408.065552 220.152130,407.656189 
	C220.495285,407.631165 220.671799,407.768219 221.099625,408.127136 
	C221.388138,408.652374 221.307831,408.920593 220.956543,409.303986 
	C220.607849,409.336029 220.412598,409.217743 219.947357,408.888794 
z"/>
<path fill="none" opacity="1.000000" stroke="none"
	d="
M804.515503,407.964600 
	C804.718079,407.519775 805.232544,407.357239 805.759216,407.260712 
	C805.796021,407.253998 805.922546,407.736542 806.007385,407.991577 
	C805.615051,408.081970 805.222717,408.172394 804.515503,407.964600 
z"/>
<path fill="none" opacity="1.000000" stroke="none"
	d="
M806.513672,410.284607 
	C806.112000,409.967163 805.999329,409.451141 805.886597,408.935089 
	C806.277283,408.931335 806.667908,408.927612 807.203125,409.284363 
	C807.165894,409.791901 806.984253,409.938934 806.513672,410.284607 
z"/>
<path fill="none" opacity="1.000000" stroke="none"
	d="
M787.802002,323.937500 
	C787.083313,323.237000 786.732300,322.790314 786.381348,322.343658 
	C787.388367,322.455261 788.395386,322.566864 789.402405,322.678467 
	C788.991516,323.182739 788.580627,323.687012 787.802002,323.937500 
z"/>
<path fill="none" opacity="1.000000" stroke="none"
	d="
M720.426270,176.402161 
	C719.854492,176.134293 719.550659,175.675400 719.246765,175.216492 
	C719.814026,175.220505 720.381348,175.224533 721.073975,175.508820 
	C721.030884,175.929779 720.862549,176.070435 720.426270,176.402161 
z"/>
<path fill="none" opacity="1.000000" stroke="none"
	d="
M305.642273,175.434509 
	C305.872284,174.824402 306.328339,174.531326 306.784424,174.238251 
	C306.805389,174.813217 306.826355,175.388184 306.607300,176.156265 
	C306.200958,176.150085 306.034637,175.950806 305.642273,175.434509 
z"/>
</svg>