<svg width="1200" height="480" viewBox="0 0 1200 480" fill="none" xmlns="http://www.w3.org/2000/svg">
<g clip-path="url(#clip0_8_42)">
<path d="M1 451C1 301.03 1 151.059 1 1.04459C400.891 1.04459 800.782 1.04459 1201 1.04459C1201 150.695 1201 300.389 1200.53 450.524C801.208 450.96 402.353 450.956 3.49835 450.953C2.66557 450.953 1.83278 450.984 1 451ZM976.274 351.853C969.03 363.8 974.836 374.892 989.152 375.354C1004.29 375.842 1019.49 375.991 1034.61 375.28C1060.78 374.05 1080.29 353.074 1080.32 326.968C1080.35 284.491 1080.36 242.015 1080.27 199.538C1080.26 195.757 1079.87 191.839 1078.82 188.229C1077.08 182.24 1072.98 179.751 1066.28 179.672C1059.17 179.587 1055.29 182.007 1053 187.999C1052.5 189.312 1052.09 190.661 1052.06 190.771C1044.92 187.557 1038.32 182.79 1031.16 181.703C1010.42 178.554 990.772 180.631 974.889 197.185C967.539 204.845 962.868 212.973 962.853 223.594C962.83 239.751 962.818 255.907 962.871 272.064C962.879 274.383 962.993 276.77 963.535 279.01C967.971 297.334 981.508 308.098 997.876 312.691C1015.63 317.672 1034.64 318.725 1050.28 304.485C1050.4 304.381 1050.85 304.648 1051.44 304.838C1051.44 311.897 1051.51 319.047 1051.43 326.195C1051.32 336.281 1044.65 344.179 1034.58 345.987C1031.49 346.542 1028.29 346.713 1025.14 346.737C1013.65 346.823 1002.13 346.345 990.672 346.98C985.975 347.24 981.405 349.792 976.274 351.853ZM561.838 308.567C565.537 313.256 570.475 315.021 576.324 315.006C598.485 314.951 620.647 314.898 642.806 315.118C645.045 315.14 647.886 316.453 649.395 318.12C660.441 330.324 678.467 331.249 689.925 319.923C701.061 308.914 700.795 290.749 689.342 280.118C677.562 269.185 659.569 270.635 648.904 283.161C647.623 284.665 645.18 285.964 643.249 286.002C630.591 286.254 617.925 286.143 605.261 286.113C604.224 286.11 603.188 285.824 601.676 285.599C602.968 284.157 603.812 283.145 604.728 282.203C624.82 261.537 644.967 240.925 664.974 220.176C668.42 216.602 671.806 212.767 674.298 208.513C681.86 195.609 674.932 181.17 660.919 180.996C634.264 180.665 607.601 180.914 580.942 180.938C579.946 180.938 578.941 181.032 577.956 181.185C569.417 182.519 565.341 187.025 565.276 195.166C565.21 203.409 569.047 207.806 577.737 209.228C580.024 209.603 582.374 209.721 584.696 209.728C599.692 209.77 614.688 209.74 629.685 209.764C631.064 209.766 632.443 209.975 634.679 210.159C621.052 224.171 608.022 237.469 595.108 250.88C584.481 261.916 573.674 272.805 563.559 284.299C557.442 291.25 556.614 299.583 561.838 308.567ZM913.009 327.717C925.209 325.658 933.537 318.879 936.445 306.8C939.233 295.22 935.403 285.555 926.079 277.965C924.691 276.836 923.744 274.419 923.659 272.549C922.715 251.924 922.264 231.273 921.093 210.662C920.313 196.943 910.582 184.427 897.163 181.951C880.594 178.894 863.659 177.596 848.7 188.642C844.616 191.658 840.205 194.233 835.486 197.31C835.261 195.096 835.159 193.646 834.959 192.211C833.743 183.461 829.069 179.16 820.805 179.154C812.772 179.149 808.162 183.279 806.9 191.856C806.49 194.643 806.365 197.494 806.362 200.317C806.326 231.797 806.323 263.278 806.365 294.758C806.369 297.745 806.503 300.77 806.978 303.712C808.312 311.982 812.881 315.911 820.802 315.906C828.774 315.901 833.379 312.018 834.786 303.843C835.206 301.4 835.207 298.866 835.211 296.374C835.242 276.054 835.296 255.732 835.156 235.413C835.135 232.353 836.119 230.591 838.709 229.045C846.857 224.181 855.161 219.49 862.834 213.945C869.854 208.872 877.332 208.883 885.209 209.676C889.252 210.083 891.571 212.302 892.181 216.278C892.533 218.578 892.922 220.892 893.008 223.21C893.625 240.018 894.233 256.827 894.635 273.64C894.676 275.33 893.779 277.536 892.551 278.685C882.749 287.857 879.633 299.47 884.239 310.748C888.756 321.807 899.154 328.163 913.009 327.717ZM465.899 240.5C465.925 255.662 465.691 270.83 466.053 285.984C466.41 300.961 472.73 311.213 484.861 313.179C496.037 314.991 507.717 314.764 519.078 313.995C526.901 313.465 530.125 308.201 530.05 300.418C529.975 292.703 526.625 288.167 518.752 286.968C512.711 286.048 506.472 286.043 500.34 286.238C495.858 286.38 494.693 284.809 494.73 280.491C494.92 258.332 494.813 236.17 494.83 214.009C494.831 212.729 495.007 211.448 495.133 209.75C497.376 209.75 499.339 209.788 501.3 209.743C509.117 209.565 516.994 209.892 524.735 209.022C532.896 208.104 536.662 203.319 536.81 195.661C536.964 187.683 533.241 182.966 525.009 181.461C521.441 180.809 517.716 180.91 514.06 180.859C507.783 180.772 501.504 180.835 494.817 180.835C494.817 167.567 494.88 154.932 494.775 142.298C494.746 138.819 494.569 135.267 493.836 131.883C492.243 124.535 487.24 120.96 479.701 121.266C471.115 121.615 466.372 126.607 466.032 136.485C465.705 145.971 465.917 155.476 465.9 164.973C465.891 170.086 465.899 175.199 465.899 181.047C461.538 181.047 457.723 180.766 453.964 181.104C445.535 181.862 441.052 185.886 440.182 192.998C439.097 201.866 443.102 207.58 451.937 209.06C456.436 209.814 461.061 209.819 465.899 210.183C465.899 220.215 465.899 229.857 465.899 240.5ZM189.685 151.578C195.844 151.436 202.028 151.602 208.154 151.079C217.419 150.289 221.849 145.547 221.887 137.145C221.926 128.466 217.467 123.59 207.942 122.919C200.982 122.429 193.957 122.978 186.973 122.725C166.727 121.995 148.95 140.289 147.903 159.462C147.524 166.403 147.186 173.347 146.816 180.559C142.397 180.795 138.06 180.671 133.845 181.326C125.251 182.661 121.447 187.287 121.534 195.547C121.618 203.501 125.369 207.837 133.896 209.162C138.108 209.818 142.427 209.787 147.184 210.099C147.184 212.07 147.184 213.858 147.184 215.645C147.184 242.299 147.167 268.952 147.21 295.606C147.214 298.425 147.334 301.284 147.811 304.055C149.269 312.534 153.478 316.139 161.602 316.183C169.709 316.227 174.029 312.64 175.585 304.234C176.065 301.639 176.077 298.932 176.08 296.276C176.113 269.29 176.1 242.303 176.1 215.316C176.1 213.559 176.1 211.803 176.1 210.096C183.652 209.755 190.517 209.917 197.241 209.021C205.418 207.932 209.048 203.318 209.104 195.536C209.161 187.52 205.816 183.1 197.765 181.56C193.883 180.817 189.818 180.985 185.832 180.856C182.731 180.756 179.624 180.836 176.102 180.836C176.102 176.525 176.041 172.893 176.125 169.264C176.175 167.106 176.32 164.933 176.653 162.804C177.89 154.9 180.817 152.241 189.685 151.578ZM288.971 186.408C283.69 190.986 278.409 195.565 272.873 200.364C272.217 196.037 272.034 192.349 271.054 188.887C269.199 182.331 265.163 179.695 257.979 179.667C250.772 179.639 246.633 182.216 244.851 188.776C243.819 192.572 243.468 196.651 243.448 200.606C243.325 224.597 243.456 248.589 243.265 272.579C243.248 274.699 242.083 277.426 240.515 278.819C228.102 289.853 226.856 307.678 237.951 319.275C249.002 330.826 267.191 330.746 278.071 319.099C289.005 307.395 287.597 289.564 275.107 278.65C273.62 277.351 272.463 274.857 272.406 272.881C272.131 263.225 272.156 253.555 272.389 243.897C272.435 241.999 273.38 239.609 274.742 238.339C283.634 230.045 292.533 221.724 301.934 214.029C304.873 211.624 309.295 210.81 313.182 209.846C316.693 208.975 320.521 209.333 323.994 208.37C330.426 206.584 333.155 202.267 333.112 195.192C333.068 188.09 330.393 183.467 323.832 182.18C312.143 179.885 300.328 178.824 288.971 186.408ZM714.465 206.109C721.726 207.838 728.987 209.568 736.814 211.432C736.814 212.334 736.814 214.138 736.814 215.942C736.814 242.573 736.806 269.204 736.826 295.835C736.828 298.328 736.802 300.849 737.137 303.309C738.321 312.002 742.727 316.071 750.826 316.184C759.365 316.302 763.806 312.459 765.191 303.552C765.572 301.099 765.694 298.584 765.696 296.097C765.729 264.473 765.728 232.848 765.697 201.224C765.695 198.737 765.586 196.222 765.215 193.767C764.037 185.994 759.907 181.606 752.066 181.195C742.609 180.7 733.094 180.775 723.63 181.189C718.369 181.42 713.247 183.286 711.198 188.889C709.026 194.83 709.165 200.672 714.465 206.109ZM358.242 206.352C365.381 207.963 372.521 209.574 380.109 211.286C380.109 212.346 380.109 214.16 380.109 215.974C380.109 242.299 380.086 268.625 380.139 294.95C380.145 298.1 380.271 301.302 380.836 304.388C382.346 312.632 386.484 316.101 394.397 316.183C402.587 316.268 406.84 312.789 408.499 304.38C408.946 302.115 409.009 299.747 409.011 297.426C409.042 264.935 409.039 232.445 409.018 199.954C409.017 197.794 409.016 195.6 408.664 193.48C407.454 186.175 403.507 181.735 396.186 181.312C386.231 180.736 376.2 180.822 366.236 181.315C360.95 181.577 355.967 183.911 354.33 189.692C352.68 195.522 352.727 201.28 358.242 206.352ZM379.26 159.37C392.696 164.066 405.478 160.224 412.826 149.28C419.804 138.889 418.881 124.633 410.324 115.513C402.276 106.935 392.328 104.144 381.164 107.914C369.792 111.754 363.282 120.164 362.493 132.079C361.676 144.44 367.428 153.506 379.26 159.37ZM766.035 114.461C755.965 105.511 743.709 103.852 732.935 109.981C722.626 115.845 717.13 127.821 719.5 139.255C721.876 150.713 730.798 159.375 742.01 161.109C753.798 162.931 764.968 157.561 770.668 147.331C776.471 136.917 774.942 124.939 766.035 114.461Z" fill="#71767D"/>
<path d="M1 451.469C1.83278 450.984 2.66557 450.953 3.49835 450.953C402.353 450.956 801.208 450.96 1200.53 450.982C1201 460.997 1201 470.993 1201 480.964C801 480.964 401 480.964 1 480.964C1 471.264 1 461.601 1 451.469Z" fill="#71767D"/>
<path d="M976.525 351.577C981.405 349.792 985.975 347.24 990.672 346.98C1002.13 346.345 1013.65 346.823 1025.14 346.737C1028.29 346.713 1031.49 346.542 1034.58 345.987C1044.65 344.179 1051.32 336.281 1051.43 326.195C1051.51 319.047 1051.44 311.897 1051.44 304.838C1050.85 304.648 1050.4 304.381 1050.28 304.485C1034.64 318.725 1015.63 317.672 997.876 312.691C981.508 308.098 967.971 297.334 963.535 279.01C962.993 276.77 962.879 274.383 962.871 272.064C962.818 255.907 962.83 239.751 962.853 223.594C962.868 212.973 967.539 204.845 974.889 197.185C990.772 180.631 1010.42 178.554 1031.16 181.703C1038.32 182.79 1044.92 187.557 1052.06 190.771C1052.09 190.661 1052.5 189.312 1053 187.999C1055.29 182.007 1059.17 179.587 1066.28 179.672C1072.98 179.751 1077.08 182.24 1078.82 188.229C1079.87 191.839 1080.26 195.757 1080.27 199.538C1080.36 242.015 1080.35 284.491 1080.32 326.968C1080.29 353.074 1060.78 374.05 1034.61 375.28C1019.49 375.991 1004.29 375.842 989.152 375.354C974.836 374.892 969.03 363.8 976.525 351.577ZM1002.45 283.305C1014.77 288.013 1025.97 287.674 1036.88 278.619C1047.21 270.052 1052.47 260.852 1051.96 246.688C1051.54 235.074 1047.85 227.161 1039.64 219.505C1031.24 211.672 1022.23 208.578 1011.07 209.885C999.464 211.244 991.665 219.426 991.633 231.019C991.603 241.841 992.01 252.682 991.506 263.481C991.096 272.285 994.2 278.651 1002.45 283.305Z" fill="#FFFDFD"/>
<path d="M561.615 308.275C556.614 299.583 557.442 291.25 563.559 284.299C573.674 272.805 584.481 261.916 595.108 250.88C608.022 237.469 621.052 224.171 634.679 210.159C632.443 209.975 631.064 209.766 629.685 209.764C614.688 209.74 599.692 209.77 584.696 209.728C582.374 209.721 580.024 209.603 577.737 209.228C569.047 207.806 565.21 203.409 565.276 195.166C565.341 187.025 569.417 182.519 577.956 181.185C578.941 181.032 579.946 180.938 580.942 180.938C607.601 180.914 634.264 180.665 660.919 180.996C674.932 181.17 681.86 195.609 674.298 208.513C671.805 212.767 668.42 216.602 664.974 220.176C644.967 240.925 624.82 261.537 604.728 282.203C603.812 283.145 602.968 284.157 601.675 285.599C603.188 285.824 604.224 286.11 605.261 286.113C617.925 286.143 630.591 286.254 643.249 286.002C645.18 285.964 647.623 284.665 648.903 283.161C659.569 270.635 677.562 269.185 689.341 280.118C700.795 290.749 701.061 308.914 689.925 319.923C678.467 331.249 660.441 330.324 649.394 318.12C647.886 316.453 645.045 315.14 642.806 315.118C620.647 314.898 598.485 314.951 576.324 315.006C570.475 315.021 565.537 313.256 561.615 308.275ZM669.711 312.873C678.48 312.31 683.764 306.819 683.045 299.014C682.408 292.092 676.231 287.162 669.102 287.886C663.361 288.47 658.68 293.175 658.07 298.974C657.37 305.642 661.284 310.632 669.711 312.873Z" fill="#FEFCFC"/>
<path d="M912.574 327.759C899.154 328.163 888.756 321.807 884.239 310.747C879.633 299.47 882.749 287.857 892.551 278.685C893.779 277.536 894.676 275.33 894.636 273.64C894.233 256.827 893.625 240.018 893.008 223.21C892.922 220.892 892.533 218.578 892.181 216.278C891.571 212.302 889.252 210.083 885.209 209.676C877.332 208.883 869.854 208.872 862.834 213.945C855.161 219.49 846.857 224.181 838.709 229.045C836.119 230.591 835.135 232.353 835.156 235.413C835.296 255.732 835.242 276.054 835.211 296.374C835.207 298.866 835.206 301.4 834.786 303.843C833.379 312.018 828.774 315.901 820.803 315.906C812.881 315.911 808.312 311.982 806.978 303.712C806.503 300.77 806.369 297.745 806.365 294.758C806.323 263.278 806.326 231.797 806.362 200.317C806.365 197.494 806.49 194.643 806.9 191.856C808.162 183.279 812.772 179.149 820.805 179.154C829.069 179.16 833.743 183.461 834.959 192.211C835.159 193.646 835.261 195.096 835.486 197.309C840.205 194.233 844.616 191.658 848.7 188.641C863.659 177.596 880.594 178.894 897.163 181.951C910.582 184.427 920.313 196.943 921.093 210.662C922.264 231.273 922.715 251.924 923.659 272.549C923.744 274.419 924.691 276.836 926.079 277.965C935.403 285.555 939.233 295.22 936.445 306.8C933.537 318.879 925.209 325.658 912.574 327.759ZM921.874 303.779C922.828 295.913 920.142 290.7 914 288.496C908.529 286.533 902.265 288.671 899.17 293.559C895.305 299.661 897.316 307.691 903.593 311.224C910.325 315.012 917.628 312.311 921.874 303.779Z" fill="#FEFCFC"/>
<path d="M465.899 240C465.899 229.857 465.899 220.215 465.899 210.183C461.061 209.819 456.436 209.814 451.937 209.06C443.102 207.58 439.097 201.866 440.182 192.998C441.052 185.886 445.535 181.861 453.964 181.104C457.723 180.766 461.538 181.047 465.899 181.047C465.899 175.199 465.891 170.086 465.9 164.973C465.917 155.476 465.705 145.971 466.032 136.484C466.372 126.607 471.115 121.615 479.701 121.266C487.24 120.96 492.243 124.535 493.836 131.883C494.569 135.266 494.746 138.819 494.775 142.298C494.88 154.932 494.817 167.566 494.817 180.835C501.504 180.835 507.783 180.772 514.06 180.859C517.716 180.91 521.441 180.809 525.009 181.461C533.241 182.966 536.964 187.683 536.81 195.661C536.662 203.319 532.896 208.104 524.735 209.022C516.994 209.892 509.117 209.565 501.3 209.743C499.339 209.788 497.376 209.75 495.133 209.75C495.007 211.448 494.831 212.728 494.83 214.009C494.813 236.17 494.92 258.331 494.73 280.491C494.693 284.809 495.858 286.38 500.34 286.238C506.472 286.043 512.711 286.048 518.752 286.968C526.625 288.167 529.975 292.703 530.05 300.418C530.125 308.201 526.901 313.465 519.078 313.995C507.717 314.764 496.037 314.991 484.861 313.179C472.73 311.213 466.41 300.961 466.053 285.984C465.691 270.83 465.925 255.662 465.899 240Z" fill="#FEFCFC"/>
<path d="M189.216 151.605C180.817 152.241 177.89 154.9 176.653 162.804C176.32 164.933 176.175 167.106 176.125 169.264C176.041 172.893 176.102 176.525 176.102 180.836C179.624 180.836 182.731 180.756 185.832 180.856C189.818 180.984 193.883 180.817 197.765 181.56C205.816 183.1 209.161 187.52 209.104 195.536C209.048 203.318 205.418 207.932 197.241 209.021C190.517 209.917 183.652 209.755 176.101 210.096C176.101 211.803 176.101 213.559 176.101 215.316C176.1 242.303 176.113 269.29 176.08 296.276C176.077 298.932 176.065 301.639 175.585 304.234C174.029 312.64 169.709 316.227 161.602 316.183C153.478 316.139 149.269 312.534 147.811 304.055C147.335 301.284 147.214 298.425 147.21 295.606C147.167 268.952 147.184 242.299 147.184 215.645C147.184 213.858 147.184 212.07 147.184 210.099C142.427 209.787 138.108 209.817 133.896 209.162C125.369 207.837 121.618 203.501 121.534 195.547C121.447 187.287 125.251 182.661 133.845 181.326C138.06 180.671 142.397 180.795 146.816 180.559C147.186 173.347 147.524 166.403 147.903 159.462C148.95 140.289 166.727 121.995 186.973 122.725C193.957 122.978 200.982 122.429 207.942 122.919C217.467 123.59 221.927 128.466 221.887 137.145C221.849 145.547 217.419 150.289 208.154 151.079C202.028 151.601 195.844 151.436 189.216 151.605Z" fill="#FFFDFC"/>
<path d="M289.275 186.208C300.328 178.824 312.143 179.885 323.832 182.18C330.393 183.467 333.068 188.09 333.112 195.192C333.155 202.267 330.426 206.584 323.994 208.369C320.521 209.333 316.693 208.975 313.182 209.846C309.295 210.81 304.873 211.624 301.934 214.029C292.533 221.724 283.634 230.045 274.742 238.339C273.38 239.609 272.435 241.999 272.389 243.897C272.156 253.555 272.131 263.225 272.406 272.881C272.463 274.857 273.62 277.351 275.107 278.65C287.597 289.564 289.005 307.395 278.071 319.099C267.191 330.746 249.002 330.826 237.951 319.275C226.856 307.678 228.102 289.853 240.515 278.819C242.083 277.426 243.248 274.699 243.265 272.579C243.456 248.589 243.325 224.597 243.448 200.606C243.468 196.651 243.819 192.572 244.851 188.776C246.633 182.216 250.772 179.639 257.979 179.667C265.163 179.695 269.199 182.331 271.054 188.887C272.034 192.349 272.217 196.037 272.873 200.364C278.409 195.565 283.69 190.986 289.275 186.208ZM245.586 298.158C243.915 307.437 252.471 314.327 260.373 312.637C266.38 311.352 270.529 306.22 270.45 300.147C270.37 294.054 265.958 288.885 260.049 287.961C253.374 286.917 248.35 290.234 245.586 298.158Z" fill="#FEFCFB"/>
<path d="M714.175 205.875C709.165 200.672 709.026 194.83 711.198 188.889C713.247 183.286 718.369 181.42 723.63 181.189C733.094 180.775 742.609 180.7 752.066 181.195C759.907 181.606 764.037 185.994 765.215 193.767C765.586 196.222 765.695 198.737 765.697 201.224C765.728 232.848 765.728 264.473 765.696 296.097C765.694 298.584 765.572 301.099 765.191 303.552C763.806 312.459 759.364 316.302 750.826 316.184C742.727 316.071 738.321 312.002 737.137 303.309C736.802 300.849 736.828 298.328 736.826 295.835C736.806 269.204 736.814 242.573 736.814 215.942C736.814 214.138 736.814 212.334 736.814 211.432C728.987 209.568 721.726 207.839 714.175 205.875Z" fill="#FEFCFC"/>
<path d="M357.945 206.124C352.727 201.28 352.68 195.522 354.33 189.692C355.967 183.911 360.95 181.577 366.236 181.315C376.2 180.822 386.231 180.736 396.186 181.312C403.507 181.735 407.454 186.175 408.664 193.48C409.016 195.6 409.017 197.794 409.018 199.954C409.039 232.445 409.042 264.935 409.011 297.426C409.009 299.747 408.946 302.115 408.499 304.38C406.84 312.788 402.587 316.268 394.397 316.183C386.484 316.101 382.346 312.632 380.836 304.388C380.271 301.302 380.145 298.1 380.139 294.95C380.086 268.625 380.109 242.299 380.109 215.974C380.109 214.16 380.109 212.346 380.109 211.286C372.521 209.574 365.381 207.963 357.945 206.124Z" fill="#FEFCFC"/>
<path d="M378.908 159.219C367.428 153.506 361.676 144.44 362.493 132.079C363.282 120.164 369.792 111.754 381.164 107.914C392.328 104.144 402.276 106.935 410.324 115.513C418.881 124.633 419.804 138.889 412.826 149.28C405.478 160.224 392.696 164.066 378.908 159.219ZM402.444 134.385C401.65 126.69 397.701 122.181 391.142 121.48C385.383 120.865 379.779 124.491 378.007 129.981C375.782 136.873 379.719 144.252 386.579 146.048C394.186 148.04 400.599 143.607 402.444 134.385Z" fill="#FDFAFA"/>
<path d="M766.287 114.716C774.942 124.939 776.471 136.917 770.668 147.331C764.968 157.561 753.798 162.931 742.01 161.109C730.798 159.375 721.876 150.713 719.5 139.255C717.13 127.821 722.626 115.845 732.935 109.981C743.709 103.852 755.965 105.511 766.287 114.716ZM736.661 141.683C740.363 146.128 745.11 147.529 750.512 145.818C755.323 144.295 758.231 140.758 758.965 135.703C759.768 130.18 756.881 124.957 751.919 122.62C747.125 120.363 741.382 121.362 737.663 125.099C733.41 129.373 732.927 134.663 736.661 141.683Z" fill="#FDFAFA"/>
<path d="M1002.12 283.124C994.2 278.651 991.096 272.285 991.506 263.481C992.01 252.682 991.603 241.841 991.633 231.019C991.665 219.426 999.464 211.244 1011.07 209.885C1022.23 208.578 1031.24 211.672 1039.64 219.505C1047.85 227.161 1051.54 235.074 1051.96 246.688C1052.47 260.852 1047.21 270.052 1036.88 278.619C1025.97 287.674 1014.77 288.013 1002.12 283.124Z" fill="#71767D"/>
<path d="M669.31 312.831C661.284 310.632 657.37 305.642 658.071 298.974C658.68 293.175 663.362 288.47 669.102 287.886C676.231 287.162 682.408 292.092 683.045 299.014C683.764 306.818 678.481 312.31 669.31 312.831Z" fill="#71767D"/>
<path d="M921.748 304.169C917.628 312.311 910.325 315.012 903.593 311.224C897.316 307.691 895.305 299.661 899.169 293.559C902.265 288.671 908.529 286.533 914 288.496C920.142 290.7 922.828 295.913 921.748 304.169Z" fill="#71767D"/>
<path d="M245.669 297.778C248.35 290.234 253.374 286.917 260.049 287.961C265.958 288.885 270.37 294.054 270.45 300.147C270.53 306.22 266.38 311.352 260.373 312.637C252.471 314.327 243.915 307.437 245.669 297.778Z" fill="#71767D"/>
<path d="M402.403 134.762C400.599 143.607 394.186 148.04 386.579 146.048C379.719 144.252 375.782 136.873 378.007 129.981C379.779 124.492 385.383 120.865 391.142 121.48C397.701 122.181 401.65 126.69 402.403 134.762Z" fill="#71767D"/>
<path d="M736.431 141.383C732.927 134.663 733.41 129.373 737.663 125.099C741.382 121.362 747.125 120.363 751.919 122.62C756.881 124.957 759.768 130.18 758.965 135.703C758.231 140.758 755.322 144.295 750.511 145.818C745.11 147.529 740.363 146.128 736.431 141.383Z" fill="#71767D"/>
</g>
<defs>
<clipPath id="clip0_8_42">
<rect width="1200" height="480" fill="white"/>
</clipPath>
</defs>
</svg>
