<svg width="855" height="335" viewBox="0 0 855 335" fill="none" xmlns="http://www.w3.org/2000/svg">
<path d="M266.005 0.0126667C249.19 0.860542 235.805 14.7685 235.805 31.7403C235.805 49.2607 250.034 63.4679 267.604 63.4679C285.178 63.4679 299.403 49.2607 299.403 31.7403C299.403 14.2199 285.178 0.0126667 267.604 0.0126667C267.056 0.0126667 266.546 -0.0158333 266.005 0.0126667ZM8.90625 25.1995C3.94012 25.1995 0 29.5244 0 34.2483V325.579C0 330.299 3.94012 334.624 8.90625 334.624H312.485C317.451 334.624 321.32 330.299 321.32 325.575V34.2483C321.32 29.5209 317.461 25.2031 312.485 25.2031H303.229C303.621 27.3228 303.856 29.5137 303.856 31.7439C303.856 33.8992 303.664 36.0224 303.301 38.0744H308.448V321.756H12.8713V38.0744H231.912C231.54 35.9847 231.353 33.8664 231.352 31.7439C231.352 29.5066 231.587 27.3335 231.979 25.2031L8.90625 25.1995ZM18.2293 43.4289V316.459H303.09V43.4289H301.908C298.887 52.1575 292.671 59.4173 284.512 63.7458C279.507 67.0845 273.62 68.8534 267.604 68.8259C261.588 68.8532 255.701 67.0843 250.697 63.7458C242.537 59.4173 236.321 52.1575 233.301 43.4289H18.2293ZM786.326 52.4064C789.767 56.2681 791.89 60.479 792.728 65.0711C793.141 67.262 793.351 72.1676 793.351 79.6809V138.961C783.543 129.677 770.002 125.046 752.788 125.046C739.742 125.046 728.221 128.633 718.207 135.833C697.025 151.066 686.408 179.47 686.408 220.998C686.408 233.52 688.079 244.867 691.417 255.091C696.216 269.697 703.84 281.222 714.171 289.672C725.125 298.65 738.004 303.174 752.927 303.174C770.562 303.174 785.111 297.567 796.482 286.402V299.69H855C850.201 294.375 847.832 285.184 847.832 272.141V52.4064H786.326ZM443.157 63.0511C415.192 63.0511 391.038 73.2862 370.582 93.7349C348.462 115.858 337.394 145.722 337.394 183.285C337.394 216.78 346.407 244.696 364.462 267.129C383.867 291.336 409.869 303.452 442.53 303.452C463.086 303.452 481.671 298.785 498.262 289.395C507.653 284.072 513.011 281.557 514.265 281.878L488.244 239.299C475.932 252.861 461.867 259.616 446.007 259.616C437.137 259.616 428.786 256.83 420.963 251.197C404.158 239.092 395.772 216.467 395.772 183.285C395.772 171.6 396.919 160.913 399.321 151.209C406.624 121.576 422.288 106.749 446.285 106.749C461.625 106.749 473.912 112.595 483.093 124.283L511.137 83.5782C508.109 83.2576 504.14 81.7685 499.238 79.0539C480.143 68.4127 461.415 63.0511 443.157 63.0511ZM19.9678 66.6706H93.5156C87.6731 72.5131 84.7483 82.6092 84.7519 97.0053V154.479L129.696 97.6323C138.88 86.0542 143.473 77.4187 143.473 71.6795C143.473 69.5954 143.159 67.9246 142.639 66.6706H221.057C215.107 70.0087 207.697 77.0054 198.72 87.7535C196.322 90.5679 192.108 95.7584 186.059 103.268L127.192 176.538L197.469 273.253C201.744 279.095 207.177 285.711 213.75 293.014C215.524 294.891 218.064 297.09 221.402 299.694H140.968C141.54 297.607 141.844 295.456 141.873 293.292C141.873 287.553 137.904 279.234 129.974 268.383L84.7519 206.734V269.22C84.7519 283.72 87.6731 293.851 93.5192 299.694H19.9678C24.0398 295.625 26.6154 290.994 27.7626 285.779C28.386 282.857 28.7351 277.389 28.7351 269.355V97.0053C28.7351 88.9719 28.386 83.507 27.7626 80.5857C26.6154 75.3702 24.0398 70.739 19.9678 66.6706ZM597.207 125.046C588.753 125.046 580.958 125.74 573.758 127.201L552.465 132.559C542.448 135.063 535.661 136.317 532.22 136.317L547.734 173.681C562.341 165.961 576.302 162.131 589.551 162.131C605.098 162.131 612.86 171.077 612.86 188.921C605.141 188.508 599.711 188.294 596.58 188.294C574.564 188.294 557.439 191.251 545.23 197.201C524.047 207.532 513.502 223.506 513.502 245.209C513.502 254.706 515.173 263.235 518.511 270.745C523.207 281.286 530.656 289.427 540.983 295.169C550.795 300.591 561.756 303.278 573.758 303.171C590.662 302.957 604.478 297.357 615.226 286.402V299.69H673.605C670.056 295.832 667.83 291.582 666.996 286.887C666.579 284.592 666.369 279.651 666.369 272.138V195.597C666.369 180.261 664.278 167.418 660.106 156.98C651.549 135.698 630.595 125.046 597.207 125.046ZM233.44 128.455H294.95V272.138C294.95 279.655 295.16 284.596 295.577 286.89C296.411 291.585 298.641 295.832 302.185 299.694H233.301C236.849 295.836 239.008 291.585 239.842 286.89C240.259 284.596 240.469 279.651 240.469 272.141V155.733C240.469 148.22 240.259 143.382 239.842 141.191C239.008 136.599 236.885 132.317 233.44 128.455ZM770.319 164.782C778.773 164.782 786.465 167.703 793.351 173.546V251.685C785.214 258.258 776.721 261.497 767.954 261.497C751.157 261.497 742.767 247.158 742.767 218.355C742.767 182.673 751.958 164.782 770.319 164.782ZM599.569 223.506C603.951 223.506 608.129 223.827 612.095 224.55V251.685C606.879 260.663 598.557 265.116 587.186 265.116C581.03 265.116 575.949 263.477 571.877 260.246C567.389 256.698 565.13 251.999 565.13 246.05C565.13 238.12 569.099 232.135 577.029 228.166C583.288 225.038 590.801 223.506 599.569 223.506Z" fill="#71767D"/>
</svg>
