<svg width="1400" height="875" viewBox="0 0 1400 875" fill="none" xmlns="http://www.w3.org/2000/svg">
<g clip-path="url(#clip0_7_12)">
<path d="M583.084 467.86C589.689 483.596 596.236 498.935 602.937 514.631C601.44 514.768 600.173 514.984 598.906 514.985C581.081 515.008 563.255 515.006 545.43 514.993C543.363 514.991 541.756 515.322 540.696 512.236C537.57 503.137 533.547 494.35 530.044 485.375C525.616 474.032 521.389 462.611 516.957 451.27C516.593 450.338 515.365 449.178 514.471 449.117C510.862 448.871 507.227 449.015 502.95 449.015C503.667 471.134 500.466 492.912 507.927 514.62C485.667 514.62 464.619 514.62 442.894 514.62C443.277 512.953 443.541 511.48 443.956 510.05C445.274 505.5 447.787 500.975 447.822 496.425C448.13 456.444 448.118 416.46 447.835 376.479C447.803 372.023 445.582 367.555 444.192 363.15C443.635 361.384 442.578 359.776 441.355 357.3C443.948 357.171 445.675 357.012 447.402 357.011C486.219 356.997 525.036 356.918 563.851 357.067C571.915 357.098 579.811 358.879 585.675 364.922C590.54 369.935 592.848 376.442 592.939 383.402C593.134 398.393 593.265 413.396 592.858 428.378C592.713 433.723 592.92 439.88 587.28 443.306C584.086 445.246 580.569 446.656 576.052 448.864C575.218 455.196 580.41 460.924 583.084 467.86ZM538 402.491C538 400.66 538.036 398.828 537.994 396.998C537.749 386.269 540.611 385.884 527.054 385.989C519.139 386.05 511.223 386 503.32 386C503.32 397.371 503.32 407.945 503.32 418.984C513.084 418.984 522.542 419.206 531.981 418.869C535.45 418.745 538.062 416.577 538.006 412.473C537.965 409.477 537.999 406.48 538 402.491Z" fill="#71767D"/>
<path d="M634.592 358.24C666.084 357.732 697.185 357.327 728.288 357.05C732.228 357.015 736.205 357.445 740.111 358.024C750.128 359.508 756.766 365.883 759.608 374.904C762.21 383.161 763.6 392.084 763.811 400.756C764.369 423.738 764.161 446.744 763.907 469.736C763.826 477.132 763.644 484.79 761.703 491.83C759.693 499.118 755.813 505.785 748.61 510.121C742.564 513.761 736.29 514.986 729.534 514.992C702.207 515.013 674.879 515.057 647.551 514.94C643.455 514.922 639.19 514.672 635.301 513.522C625.401 510.596 619.636 503.233 616.097 493.899C612.585 484.636 612.941 474.956 612.975 465.286C613.054 442.624 613.195 419.96 612.923 397.301C612.773 384.756 616.446 373.629 624.305 364.122C626.585 361.365 630.849 360.25 634.592 358.24ZM709 453.5C709 434.363 709.033 415.226 708.982 396.089C708.964 389.463 705.422 386.002 698.947 386.001C691.625 385.999 684.302 385.96 676.981 386.012C670.638 386.058 669.027 387.591 669.018 393.836C668.978 421.293 669.129 448.752 668.898 476.207C668.848 482.118 673.437 486.401 678.903 486.076C684.707 485.731 690.617 485.43 696.354 486.138C704.195 487.105 709.306 480.738 709.047 473.469C708.822 467.153 709 460.823 709 453.5Z" fill="#71767D"/>
<path d="M1358 474.996C1358 478.494 1358.42 481.566 1357.92 484.479C1356.47 492.878 1354.83 501.301 1348.27 507.584C1342.84 512.786 1336 514.877 1328.79 514.914C1295.47 515.087 1262.14 514.966 1228.81 514.94C1228.5 514.94 1228.18 514.795 1226.86 514.474C1225.38 503.394 1223.84 491.949 1222.19 479.559C1227.95 481.986 1232.13 483.849 1236.39 485.472C1237.73 485.981 1239.32 485.976 1240.79 485.978C1258.62 486.01 1276.45 486.012 1294.28 485.991C1300.98 485.984 1302.99 483.939 1303 477.293C1303 473.81 1303 470.327 1303 466.157C1299.42 465.755 1296.06 465.077 1292.69 465.052C1277.03 464.935 1261.36 464.978 1245.7 465.011C1239.03 465.025 1233.24 462.664 1228.84 457.83C1226.66 455.433 1224.88 452.191 1224.15 449.046C1222.66 442.615 1221.46 436.019 1221.13 429.441C1220.63 419.634 1220.72 409.774 1221.09 399.956C1221.36 392.843 1221.39 385.425 1223.46 378.739C1227.32 366.226 1232.71 356.774 1250.24 356.923C1282.07 357.195 1313.9 357 1345.73 357.001C1347.54 357.001 1349.36 357.001 1351.69 357.001C1353.2 367.928 1354.67 378.623 1356.37 390.926C1350.87 389.248 1346.55 387.911 1342.21 386.616C1341.27 386.335 1340.28 386.033 1339.32 386.032C1318.83 385.998 1298.34 386.006 1277.43 386.006C1277.43 391.954 1277.43 397.653 1277.43 404.001C1279.25 404.001 1281.03 404.001 1282.8 404.001C1296.13 404 1309.47 404.049 1322.8 403.983C1332.62 403.934 1341.62 406.6 1349.68 412.14C1351.41 413.333 1353.15 415.243 1353.78 417.182C1355.5 422.521 1357.58 428.011 1357.81 433.513C1358.38 447.153 1358 460.833 1358 474.996Z" fill="#71767D"/>
<path d="M363.001 460.001C356.876 460.001 351.25 460.001 344.761 460.001C346.38 478.266 342.004 496.347 348.577 514.374C327.457 514.374 306.034 514.374 284.149 514.374C284.858 510.89 285.553 507.266 286.347 503.664C286.817 501.529 287.924 499.429 287.929 497.311C288.026 457.488 287.936 417.664 288.078 377.841C288.097 372.668 287.405 367.886 285.144 363.235C284.336 361.571 284.215 359.573 283.677 357.29C285.862 357.166 287.323 357.011 288.784 357.011C327.274 356.997 365.768 356.758 404.252 357.243C410.464 357.321 416.785 360.26 422.741 362.657C424.774 363.475 426.391 366.489 427.241 368.845C429.148 374.134 430.328 379.68 432.031 385.05C436.187 398.164 433.926 411.631 433.644 424.853C433.475 432.781 430.44 440.894 427.4 448.4C426.097 451.619 421.868 454.513 418.332 455.776C412.317 457.925 405.841 459.494 399.482 459.823C387.517 460.44 375.498 460.001 363.001 460.001ZM345 389.715C345 402.955 345 416.195 345 430C353.469 430 361.392 430.013 369.316 429.995C374.774 429.983 375.95 428.865 375.982 423.285C376.042 412.489 375.889 401.69 376.063 390.896C376.119 387.423 374.664 386.026 371.455 386.016C363.648 385.993 355.838 385.905 348.038 386.129C347.003 386.158 346.016 387.846 345 389.715Z" fill="#71767D"/>
<path d="M953 515.001C940.859 515.001 929.219 515.001 916.507 515.001C917.973 510.448 919.294 506.582 920.437 502.665C920.845 501.268 920.977 499.745 920.978 498.28C921.005 456.114 921.12 413.947 920.829 371.783C920.797 367.156 918.399 362.546 916.931 357.332C918.776 357.208 920.336 357.014 921.895 357.013C959.228 356.996 996.561 356.996 1033.89 357.004C1040.22 357.005 1040.72 357.775 1041.07 364.241C1041.37 369.819 1042.35 375.358 1042.83 380.932C1043.07 383.712 1042.87 386.53 1042.87 390.819C1021.57 383.535 1000.13 386.644 978.429 385.967C978.429 396.957 978.429 407.658 978.429 419C985.754 419 993.033 419.128 1000.31 418.966C1008.75 418.779 1017.2 418.399 1025.64 417.94C1026.93 417.869 1028.14 416.79 1029.46 416.416C1032.35 415.597 1035.29 414.93 1038.16 414.212C1038.16 427.168 1038.16 438.737 1038.16 450.327C1017.98 449.71 998.356 449.111 978.358 448.5C978.358 461.32 978.358 473.236 978.358 486.167C1000.65 484.468 1023.27 489.661 1046.76 480.974C1044.85 493.07 1043.2 503.598 1041.4 515.001C1012.33 515.001 982.915 515.001 953 515.001Z" fill="#71767D"/>
<path d="M1055.99 370.508C1054.42 366.1 1052.84 362.14 1050.96 357.388C1073.33 357.388 1094.38 357.388 1115.7 357.388C1115.79 358.401 1116.24 359.527 1115.89 360.275C1111.47 369.703 1112.04 379.774 1112.02 389.748C1111.97 417.413 1112.12 445.078 1111.93 472.741C1111.87 481.968 1116.55 485.678 1125 485.906C1137.99 486.257 1151 486.178 1163.99 485.89C1167.91 485.803 1172.32 485.274 1175.52 483.326C1177.6 482.058 1178.81 477.874 1178.85 474.974C1179.14 455.48 1179 435.98 1179 416.481C1179 406.816 1178.88 397.148 1179.04 387.484C1179.18 378.581 1178.05 369.929 1175.02 361.536C1174.59 360.334 1174.36 359.056 1173.93 357.372C1186.01 357.372 1197.72 357.372 1210 357.372C1209.77 359.087 1210.1 361.08 1209.26 362.101C1205.65 366.469 1205.99 371.544 1206 376.625C1206 402.623 1206.09 428.621 1205.95 454.618C1205.9 464.399 1206.15 474.296 1204.76 483.922C1203.48 492.735 1200.68 501.697 1193.75 507.965C1190.56 510.848 1185.97 512.629 1181.71 513.746C1177.31 514.9 1172.53 514.933 1167.92 514.952C1143.26 515.055 1118.59 515.119 1093.93 514.908C1088.54 514.862 1082.63 514.793 1077.91 512.653C1072.73 510.31 1067.93 506.15 1064.25 501.72C1057.69 493.842 1056.08 483.937 1056.04 473.948C1055.93 439.618 1056 405.287 1055.99 370.508Z" fill="#71767D"/>
<path d="M878 357C888.461 357 898.421 357 908.917 357C910.468 368.78 911.965 380.15 913.606 392.61C910.778 391.279 908.875 390.928 907.825 389.789C904.278 385.942 899.609 386.2 895.161 386.066C887.36 385.83 879.548 386 871 386C871 388.297 871 390.223 871 392.148C871 427.641 870.92 463.133 871.12 498.624C871.141 502.348 872.884 506.048 873.688 509.789C873.994 511.213 873.906 512.721 874.024 514.605C852.671 514.605 831.631 514.605 810.081 514.605C810.187 513.079 809.966 511.55 810.433 510.273C814.177 500.036 814 489.382 814 478.738C814 449.911 814 421.084 814 392.257C814 390.441 814 388.625 814 385.999C806.122 385.999 798.462 386.647 790.966 385.821C783.127 384.957 777.483 390.076 770.315 392.608C771.835 380.35 773.229 369.108 774.73 357C808.681 357 843.091 357 878 357Z" fill="#71767D"/>
<path d="M204.357 382C204.18 381.562 204.299 380.989 204.638 380.218C204.79 380.634 204.722 381.25 204.357 382Z" fill="#A79FA5"/>
<path d="M47.3414 362.686C47.3414 355.956 52.626 350.5 59.1423 350.5C65.6587 350.5 70.9433 355.956 70.9433 362.687C70.9433 362.724 70.9237 362.755 70.9227 362.793C77.7211 365.676 85.5789 370.639 92.4311 375.49C96.3869 378.291 100.445 381.408 104.528 384.659C103.071 385.531 101.636 386.422 100.356 387.363L99.6975 387.849C96.3683 385.243 93.0421 382.668 89.8118 380.381C80.4853 373.779 73.9542 370.205 69.4403 368.31C67.7199 371.653 64.5885 373.943 60.8236 374.521C62.3315 380.386 66.2374 388.334 72.0879 397.673L79.1193 408.243C80.5323 410.255 82.1224 412.37 83.6587 414.455C85.5926 417.08 87.6371 419.763 89.7472 422.477C90.1967 423.054 90.6539 423.633 91.1112 424.212C92.9657 426.57 94.8781 428.953 96.8569 431.359C97.9928 432.736 99.1737 434.127 100.349 435.516C101.85 437.299 103.339 439.076 104.903 440.873C107.83 444.229 110.83 447.602 113.954 450.982C116.842 454.108 119.806 457.139 122.769 460.156C120.155 460.099 117.54 460.05 114.958 459.941C113.323 458.236 111.702 456.517 110.095 454.784C105.251 449.542 100.736 444.351 96.385 439.208C95.434 438.082 94.4884 436.952 93.5483 435.817C89.3761 430.787 85.3938 425.825 81.7729 421.023L81.7572 421.003C78.7688 417.039 75.9439 413.156 73.3687 409.416L73.2874 409.303C73.258 409.258 73.2208 409.212 73.1905 409.168L71.944 407.242L70.5604 405.121L66.68 399.173C60.4818 389.098 56.4183 380.476 54.9104 373.989C50.4982 372.226 47.3414 367.865 47.3414 362.686ZM197.076 496.592C193.867 488.356 188.133 478.342 181.044 467.836C179.099 468.133 177.062 468.37 175.063 468.634C182.664 479.782 188.197 489.542 191.28 496.873C186.671 498.41 183.318 502.663 183.133 507.888C176.938 505.188 168.827 500.183 159.457 493.044C152.241 487.545 144.591 480.918 136.902 473.8C135.561 475.042 134.215 476.277 132.862 477.505C153.3 496.431 172.808 510.469 185.135 514.829C187.24 518.164 190.709 520.5 194.851 520.5C201.368 520.5 206.652 515.045 206.652 508.314C206.652 502.398 202.489 497.698 197.076 496.592ZM136.546 471.399C135.799 471.41 135.053 471.431 134.307 471.459C133.321 471.497 132.336 471.54 131.349 471.54C130.394 471.54 129.471 471.48 128.519 471.474C127.275 472.601 126.075 473.594 124.843 474.681C122.195 477.026 119.514 479.332 116.802 481.597L116.814 481.6C101.594 494.25 88.1512 503.204 79.1947 507.139C79.1947 507.123 79.2045 507.111 79.2045 507.095C79.2045 501.743 75.8107 497.33 71.1636 495.693C73.8015 489.559 77.9717 482.034 83.7909 473.386C84.7633 471.941 85.9206 470.413 86.9576 468.938C84.918 468.695 82.8167 468.481 80.8427 468.207C73.7858 478.469 68.3886 487.817 65.2514 495.357C59.8023 496.435 55.6026 501.153 55.6026 507.095C55.6026 513.825 60.8862 519.282 67.4036 519.282C71.2938 519.282 74.5789 517.209 76.7282 514.211C91.9327 509.213 116.159 490.353 136.546 471.399ZM81.0855 424.181C80.719 426.718 80.5337 429.279 80.5313 431.844C80.5313 441.323 83.0947 450.137 87.3796 457.792C87.9867 457.867 88.5448 457.963 89.1568 458.035C96.3811 458.875 103.849 459.453 111.45 459.845C110.407 458.745 109.36 457.651 108.325 456.53C98.3649 445.751 89.1754 434.788 81.0855 424.181ZM161.077 390.06C163.707 392.083 166.154 394.347 168.353 396.852C170.185 398.938 171.846 401.185 173.334 403.557C175.153 406.456 176.592 409.612 177.833 412.869C171.746 421.312 165.092 429.687 158.26 437.609C157.075 438.981 155.906 440.372 154.713 441.712C152.276 444.455 149.791 447.152 147.259 449.801C144.502 452.668 141.703 455.493 138.864 458.274L136.884 460.219C135.034 460.249 133.204 460.391 131.349 460.391C129.658 460.391 128.032 460.276 126.351 460.254L124.487 458.357C121.543 455.356 118.595 452.344 115.725 449.237C113.324 446.627 110.953 443.987 108.613 441.319C107.411 439.951 106.217 438.575 105.032 437.191C97.604 428.551 90.6882 419.893 84.5929 411.534C85.6514 408.964 86.845 406.466 88.2726 404.126C89.7495 401.702 91.4171 399.408 93.2585 397.267C95.7906 394.323 98.6655 391.712 101.777 389.422C103.328 388.286 104.94 387.241 106.605 386.293C113.835 382.155 122.125 379.747 130.98 379.747C140.245 379.747 148.926 382.328 156.387 386.828C158.008 387.815 159.573 388.894 161.077 390.06ZM152.068 459.746C159.041 459.32 166 458.666 172.932 457.785C173.554 457.705 174.12 457.589 174.737 457.506C178.925 449.915 181.428 441.206 181.428 431.844C181.428 429.856 181.222 427.923 181.012 425.993C172.686 436.972 163.652 447.716 154.529 457.234C153.741 458.055 152.894 458.905 152.068 459.746ZM137.922 471.363C141.434 474.625 144.895 477.772 148.226 480.646C154.687 478.194 160.581 474.538 165.502 469.757C156.412 470.679 147.174 471.168 137.922 471.363ZM126.169 483.461C127.774 483.622 129.333 483.941 130.98 483.941C132.579 483.941 134.091 483.622 135.652 483.471C134.126 482.101 132.563 480.585 131.023 479.16C129.525 480.507 127.909 481.941 126.169 483.461ZM96.6758 469.962C101.603 474.694 107.493 478.304 113.939 480.719C117.385 477.882 120.936 474.852 124.611 471.58L124.607 471.479L124.672 471.384C115.13 471.213 105.732 470.78 96.6758 469.962ZM162.54 388.033L163.097 388.46C175.403 378.635 186.193 371.64 193.88 368.746C195.572 372.175 198.758 374.525 202.579 375.125C201.13 379.744 197.886 386.94 191.189 397.739L184.955 407.14C183.033 409.967 180.95 412.828 178.871 415.685C174.596 421.559 170.001 427.443 165.251 433.206C164.668 433.908 164.076 434.599 163.488 435.299C158.788 440.911 153.949 446.416 148.999 451.581C146.188 454.513 143.368 457.335 140.551 460.105C143.197 460.032 145.846 459.993 148.477 459.858C149.926 458.403 151.364 456.936 152.789 455.455C157.293 450.757 161.695 445.767 166.021 440.688C166.833 439.729 167.64 438.765 168.442 437.797C172.625 432.782 176.679 427.701 180.519 422.568L180.533 422.551C184.11 417.767 187.563 412.985 190.721 408.27L196.886 398.841C201.791 390.802 206.581 381.773 208.538 374.596C212.945 372.829 216.092 368.471 216.092 363.295C216.092 356.565 210.81 351.109 204.292 351.109C197.81 351.109 192.572 356.51 192.513 363.189C183.696 366.65 171.818 374.383 158.427 385.199C159.77 386.048 161.112 386.934 162.54 388.033ZM171.754 397.29C173.008 398.871 174.289 400.429 175.388 402.182L176.583 404.083C178.864 404.411 181.028 404.841 183.269 405.208L186.992 399.593C182.015 398.737 176.948 397.935 171.754 397.29ZM89.7785 397.856C85.3429 398.5 81.0356 399.345 76.7125 400.16L80.3492 405.627C81.9168 405.344 83.4267 404.993 85.01 404.732L86.2007 402.779C87.2611 401.04 88.5379 399.461 89.7785 397.856ZM248.786 429.437C246.324 416.305 224.001 408.053 205.708 403.443C203.254 402.824 200.514 402.337 197.919 401.778L194.368 407.209C198.629 408.086 202.828 409.004 206.752 410.065C228.436 415.923 241.646 423.406 242.993 430.596C243.375 432.63 242.689 434.711 240.897 436.954C235.55 443.647 221.369 450.236 201.989 455.032C193.409 457.155 184.011 458.857 174.186 460.146C173.871 460.198 173.559 460.251 173.233 460.294C166.373 461.167 159.488 461.819 152.588 462.251C150.366 462.391 148.1 462.366 145.861 462.463C143.202 462.577 143.991 462.662 141.318 462.714H137.868C135.652 462.963 132.744 462.919 130.562 462.919C115.653 462.919 102.07 462.081 88.8826 460.546C57.2898 456.868 32.4825 449.189 23.3273 439.432C20.9802 436.935 19.8287 434.413 19.9041 431.94C20.0177 428.176 27.4545 419.645 54.6078 411.539C59.3108 410.136 64.2418 408.877 69.3228 407.747L65.8624 402.443C61.4786 403.46 57.0675 404.462 52.9697 405.686C38.5827 409.981 14.3895 419.079 14.0066 431.749C13.8793 435.933 15.5899 439.945 19.0895 443.675C29.8065 455.092 58.0574 463.686 93.9684 467.232C105.723 468.392 118.702 469.001 131.754 469.001C131.616 469.001 131.89 469.001 131.754 469.001C134.292 468.987 136.784 468.853 139.309 468.793C149.176 468.56 158.919 468.026 168.204 467.001C170.006 466.802 171.712 466.527 173.482 466.3C174.865 466.124 176.236 465.938 177.608 465.752C210.243 461.126 236.563 451.955 245.449 440.832C248.39 437.149 249.512 433.317 248.786 429.437Z" fill="#71767D"/>
</g>
<defs>
<clipPath id="clip0_7_12">
<rect width="1400" height="875" fill="white"/>
</clipPath>
</defs>
</svg>
