<svg width="2500" height="514" viewBox="0 0 2500 514" fill="none" xmlns="http://www.w3.org/2000/svg">
<path d="M1776.19 256.224C1776.22 255.041 1775.99 253.867 1775.52 252.783C1775.05 251.699 1774.34 250.732 1773.45 249.95C1771.77 248.659 1769.68 248.014 1767.56 248.134H1757.32L1678.4 426.991L1657.83 331.181C1656.64 322.761 1649.87 317.015 1641.9 317.477H1628.62L1566.31 425.95L1566.92 256.719C1566.98 255.478 1566.75 254.24 1566.26 253.098C1565.77 251.955 1565.03 250.936 1564.1 250.115C1562.31 248.718 1560.08 248.014 1557.81 248.134H1544.5V451.442H1561.46V451.409L1561.82 451.442C1566.81 451.492 1571.32 450.237 1575 447.562C1578.35 445.168 1581.24 441.833 1583.78 437.805L1638.33 340.476L1661.05 451.426H1675.61C1684.89 451.426 1692.65 446.027 1696.71 436.814L1775.14 260.451C1775.7 258.998 1776.16 258.073 1776.19 256.224ZM2491.17 248.117H2407.27C2368.09 248.217 2363.93 280.412 2363.75 295.585C2363.75 311.55 2375.35 324.263 2381.13 329.431L2438.26 385.384C2445.04 392.038 2448.33 399.914 2448.33 407.211C2448.33 419.594 2438.87 429.731 2423.56 429.665C2423.55 429.764 2349.63 429.781 2348.94 429.979C2346.53 430.425 2343.98 433.611 2344.03 436.137H2343.82L2344.03 436.236V451.492H2427.08C2466.29 451.343 2470.4 419.231 2470.62 404.058L2470.6 403.926C2470.62 382.924 2451.28 366.678 2451.15 366.612L2396.98 313.3C2390.21 306.63 2386.05 299.795 2386.02 292.415C2386.05 279.982 2395.51 269.911 2410.73 269.911C2410.83 269.878 2485.61 269.812 2486.22 269.63L2486.42 270.175L2486.25 269.63C2488.68 269.168 2491.26 265.982 2491.21 263.456C2491.21 263.456 2491.17 263.423 2491.21 263.39L2491.17 248.117ZM1892.38 268.524C1855.08 266.46 1812.47 288.419 1797.8 347.691C1783.37 405.808 1810.35 434.04 1846.89 438.729L1850.69 438.894C1888.41 440.909 1928.55 418.917 1942.67 359.645C1956.47 301.512 1929.44 272.305 1892.38 268.524ZM1964.48 361.395C1950.76 419.181 1909.1 464.799 1842.63 459.664V459.631C1780.77 452.482 1763.05 398.048 1776.09 345.908C1790.51 288.172 1832 242.57 1897.53 247.639V247.705C1958.55 254.821 1976.83 309.305 1964.48 361.395ZM2334.7 250.066C2333.06 248.944 2331.09 248.393 2329.11 248.497H2319.2L2214.56 337.983L2228.48 258.899C2228.86 257.321 2228.77 255.666 2228.23 254.136C2227.69 252.605 2226.71 251.266 2225.42 250.28C2223.59 248.892 2221.35 248.139 2219.05 248.134H2208.98L2171.19 451.442H2193.56L2210.1 361.461L2292.97 451.492H2302.87C2304.85 451.571 2306.81 451.003 2308.44 449.874C2309.27 449.218 2309.94 448.376 2310.39 447.416C2310.84 446.455 2311.06 445.403 2311.03 444.343C2311.03 440.694 2308.06 437.012 2308.06 437.012L2229.63 351.819L2334.31 262.927C2334.31 262.927 2337.25 260.418 2337.25 255.597C2337.27 254.542 2337.06 253.496 2336.62 252.537C2336.17 251.579 2335.52 250.733 2334.7 250.066ZM2124.61 278.992C2120.52 275.029 2114.29 273.131 2104.63 271.314C2100.87 270.744 2097.08 270.386 2093.27 270.241C2081.63 269.597 2047.06 270.126 2036.48 270.208L2023.07 344.175C2031.03 344.29 2040.14 344.406 2046.57 344.439C2064.66 344.439 2082.16 343.861 2094.55 340.476C2126.39 331.858 2142.19 295.733 2124.61 278.992ZM2145.15 266.708C2154.21 276.994 2154.89 296.096 2152.31 307.868C2149.18 322.232 2135.51 358.506 2084.29 363.079L2127.43 437.012C2127.43 437.012 2130.37 441.421 2130.37 444.343C2130.41 446.275 2129.55 448.669 2127.8 449.874C2126.19 451.021 2124.24 451.591 2122.27 451.492H2110.87L2060.27 364.284L2019.51 364.103L2003.69 451.492H1981.3L2019.14 248.134H2071.38C2102.26 248.134 2129.33 248.596 2145.15 266.708ZM641.602 291.556C639.06 307.934 644.095 327.152 662.339 339.898L727.324 385.252C734.143 389.958 737.511 393.21 736.685 398.708C735.463 406.303 731.501 409.357 718.029 409.357H642.444C634.354 409.357 629.962 413.32 628.493 422.45V450.617H717.038C755.837 450.617 775.039 427.733 778.919 403.397C782.551 380.53 774.857 364.185 760.097 353.652L691.018 304.632C685.47 300.653 684.083 298.59 684.48 295.585C685.09 290.599 689.647 288.551 697.506 288.551H776.426C786.068 288.551 791.566 278.695 793.101 268.92V247.275H688.756C665.592 247.275 645.35 267.979 641.602 291.556ZM1428.3 247.242H1318.84L1318.3 250.528C1315.74 264.314 1316.88 280.313 1338.72 280.313H1419.78C1451.88 280.313 1464.16 303.543 1456.21 347.113C1448.91 387.035 1427.41 417.53 1394.74 417.53H1350.79L1371.64 303.163H1334.26C1329.22 303.163 1325.76 306.828 1325.18 310.081L1299.52 450.584H1385.24C1448.53 450.584 1492.66 420.783 1506.33 345.644C1516.9 287.907 1492.86 247.242 1428.3 247.242ZM1168.45 417.563H1082.06L1111.92 254.177C1112.06 253.32 1112.01 252.443 1111.77 251.607C1111.54 250.772 1111.12 249.998 1110.55 249.34C1109.99 248.682 1109.28 248.156 1108.49 247.8C1107.7 247.443 1106.84 247.264 1105.97 247.275H1067.97L1030.83 450.584H1173.95L1177.66 430.276C1179.31 421.162 1176.26 417.563 1168.45 417.563ZM1276.13 247.242H1238.1L1200.97 450.584H1246.18L1282.05 254.144C1282.2 253.286 1282.16 252.407 1281.92 251.569C1281.69 250.73 1281.27 249.954 1280.71 249.295C1280.14 248.636 1279.43 248.11 1278.64 247.755C1277.84 247.4 1277 247.225 1276.13 247.242ZM924.523 282.096C883.264 282.096 861.652 306.085 853.909 353.255C846.165 400.524 859.902 424.448 901.145 424.448C942.388 424.448 963.983 400.508 971.726 353.255C979.486 306.085 965.783 282.096 924.523 282.096ZM1016.62 353.255C1007.12 410.992 968.078 459.334 895.432 459.334C822.737 459.334 799.557 410.992 809.05 353.255C818.511 295.552 857.59 247.259 930.253 247.259C1002.9 247.259 1026.11 295.552 1016.62 353.255ZM488.386 176.43C445.179 169.33 367.943 166.589 341.527 207.073C321.136 238.343 359.688 281.171 394.789 322.662C422.923 355.897 453.533 387.646 441.034 406.204C430.831 421.377 365.401 421.344 342.847 422.549C315.49 423.986 276.063 424.068 269.178 427.833C263.003 431.135 259.569 441.454 282.717 445.598C301.324 448.949 345.654 455.735 392.395 455.702C441.183 455.702 492.448 447.694 503.559 409.919C512.491 379.573 481.518 347.047 454.276 314.076C424.475 277.952 394.261 252.212 396.82 226.637C398.751 206.726 437.765 205.603 502.519 204.464C515.975 204.216 542.788 203.573 537.62 192.94C533.014 183.545 512.954 180.442 488.386 176.43ZM289.238 266.493C261.534 247.49 212.135 241.134 171.487 243.247C135.279 245.146 73.0189 256.67 75.3634 268.128C77.5758 280.511 116.969 276.664 135.032 276.664C174.739 276.664 237.759 279.091 247.682 304.665C269.079 359.81 123.937 458.773 92.9799 449.263C78.9792 444.987 121.427 373.035 136.815 347.18C145.962 331.726 159.913 307.472 148.025 305.805C134.718 303.972 120.073 326.806 110.547 339.981C84.7248 375.759 58.2917 414.839 37.0759 454.976C30.4883 467.375 8.74416 504.688 16.2068 509.509C23.1907 514 56.3765 507.611 98.5935 490.869C231.337 438.333 291.104 369.848 307.119 313.267C312.733 293.339 303.025 275.954 289.238 266.493ZM190.672 24.8316C187.964 15.8995 232.228 4.29268 280.785 2.14634C329.705 -4.28839e-06 387.574 9.72459 398.372 42.0023C416.038 94.8849 326.453 172.005 248.408 209.913C229.256 219.158 217.683 221.717 212.829 221.073C208.239 220.463 207.512 216.17 209.015 213.215C211.772 207.651 224.402 196.324 241.226 184.008C329.094 119.816 357.657 72.7281 341.064 53.6751C330.415 41.4575 285.887 32.9381 239.625 32.9381C227.077 32.9381 194.089 35.6788 190.672 24.8481" fill="#71767D"/>
</svg>
