<svg width="512" height="512" xmlns="http://www.w3.org/2000/svg">
<path fill="#AEB4C2" d="M 39.5 0 L 136.5 0 L 147.5 2 L 154.5 5 L 167 15.5 Q 173.9 23.6 176 36.5 L 176 60.5 L 177 61.5 L 178 80.5 L 183 107.5 L 192 137.5 L 192 152.5 Q 190 163.5 184 170.5 L 138 230.5 Q 166.4 287.1 211.5 327 Q 242.7 354.3 281.5 374 L 347.5 324 L 360.5 320 L 373.5 320 L 391.5 326 L 423.5 333 L 429.5 333 L 437.5 335 L 446.5 335 L 447.5 336 L 479.5 337 Q 493.8 340.7 502 350.5 L 508 359.5 L 512 375.5 L 512 472.5 L 508 488.5 L 497.5 502 L 483.5 510 L 472.5 512 L 463.5 512 L 462.5 511 L 439.5 511 L 438.5 510 L 417.5 509 L 416.5 508 L 395.5 506 L 369.5 501 L 331.5 491 L 283.5 473 Q 192.6 432.4 129 364.5 Q 66.1 298.9 30 206.5 L 18 170.5 L 7 122.5 L 4 95.5 L 3 94.5 L 3 85.5 L 2 84.5 L 0 39.5 L 2 28.5 L 5 21.5 L 15.5 9 L 28.5 2 L 39.5 0 Z"/>
</svg>